<?xml version="1.0" encoding="utf-8"?>
<!-- Generator: Adobe Illustrator 26.0.2, SVG Export Plug-In . SVG Version: 6.00 Build 0)  -->
<svg version="1.1" id="Layer_1" xmlns="http://www.w3.org/2000/svg" xmlns:xlink="http://www.w3.org/1999/xlink" x="0px" y="0px"
	 viewBox="0 0 720 720" style="enable-background:new 0 0 720 720;" xml:space="preserve">
<style type="text/css">
	.st0{fill:#FBB040;}
	.st1{font-family:'FFFCagliari2019';}
	.st2{font-size:140.9304px;}
	.st3{font-family:'MyriadPro-Regular';}
	.st4{fill:#FFFFFF;}
</style>
<polygon class="st0" points="356.84,19.71 379.09,2.69 399.04,22.37 423.25,8.27 440.58,30.29 466.37,19.34 480.79,43.36 
	507.75,35.72 519.06,61.36 546.76,57.17 554.76,84.02 582.77,83.33 587.34,110.97 615.22,113.8 616.29,141.8 643.59,148.1 
	641.14,176.01 667.44,185.68 661.52,213.07 686.4,225.96 677.08,252.38 700.15,268.29 687.6,293.34 708.49,312.01 692.9,335.29 
	711.29,356.44 692.9,377.58 708.49,400.86 687.6,419.53 700.15,444.59 677.08,460.49 686.4,486.92 661.52,499.81 667.44,527.19 
	641.14,536.86 643.59,564.78 616.29,571.07 615.22,599.07 587.34,601.9 582.77,629.54 554.76,628.85 546.76,655.71 519.06,651.51 
	507.75,677.15 480.79,669.52 466.37,693.54 440.58,682.58 423.25,704.61 399.04,690.51 379.09,710.19 356.84,693.16 334.58,710.19 
	314.63,690.51 290.42,704.61 273.1,682.58 247.31,693.54 232.88,669.52 205.92,677.15 194.62,651.51 166.91,655.71 158.91,628.85 
	130.9,629.54 126.33,601.9 98.45,599.07 97.38,571.07 70.08,564.78 72.53,536.86 46.23,527.19 52.16,499.81 27.28,486.92 
	36.59,460.49 13.52,444.59 26.07,419.53 5.18,400.86 20.77,377.58 2.39,356.44 20.77,335.29 5.18,312.01 26.07,293.34 13.52,268.29 
	36.59,252.38 27.28,225.96 52.16,213.07 46.23,185.68 72.53,176.01 70.08,148.1 97.38,141.8 98.45,113.8 126.33,110.97 130.9,83.33 
	158.91,84.02 166.91,57.17 194.62,61.36 205.92,35.72 232.88,43.36 247.31,19.34 273.1,30.29 290.42,8.27 314.63,22.37 334.58,2.69 
	"/>
<circle cx="356.84" cy="356.44" r="292.41"/>
<circle class="st0" cx="356.84" cy="356.44" r="193.78"/>
<text transform="matrix(0.9804 0 0 1 214.9438 398.7158)"><tspan x="0" y="0" class="st1 st2">100</tspan><tspan x="177.85" y="0" class="st3 st2">%</tspan></text>
<g>
	<path class="st4" d="M358.51,78.7c2.27,23.01,4.54,46.01,6.79,68.92c-11.96,2.98-13.04,1.97-13.42-9.31
		c-0.28-8.41-1.34-16.8-3.74-25.62c-2.19,6.25-4.1,12.62-6.72,18.67c-1.01,2.33-3.58,5.41-5.57,5.51c-2.35,0.12-5.62-2.08-7.12-4.23
		c-3.53-5.05-6.25-10.67-10.98-15.68c0.67,9.21,1.58,18.4,1.93,27.62c0.37,9.66,0.13,9.67-11,9.11c-2.28-22.8-4.57-45.73-6.88-68.8
		c8.69-2.88,14.13-0.75,17.77,7.94c3.57,8.52,8.66,16.41,14.04,26.34c3.68-10.95,6.44-20.49,10.17-29.64
		c1.65-4.03,5.28-7.24,8.01-10.83C354.04,78.7,356.28,78.7,358.51,78.7z"/>
	<path class="st4" d="M353.48,634.17c-1.56-18.38-3.21-36.76-4.64-55.16c-0.36-4.68-0.05-9.4-0.05-14.13
		c7.49-3.03,11.92-0.21,15.81,5.98c6.64,10.58,13.93,20.74,22.61,30.5c-0.95-11.05-1.67-22.14-2.98-33.15
		c-0.52-4.32-0.12-7.79,4.72-7.44c2.75,0.2,7.5,2.72,7.64,4.48c1.6,20.98,2.52,42.01,3.57,63.02c0.03,0.51-0.33,1.03-0.61,1.83
		c-5.41,1.18-9.35,0.58-12.9-5.17c-6.97-11.31-15.12-21.9-23.96-34.45c0.86,14.97,1.6,27.96,2.33,40.57
		c-3.76,1.18-6.81,2.14-9.86,3.09C354.6,634.17,354.04,634.17,353.48,634.17z"/>
	<path class="st4" d="M79.94,338.82c0.61-3.04,1.65-6.07,1.77-9.13c0.48-11.68,9.8-21.04,21.16-20.91
		c12.67,0.15,21.92,8.71,22.19,20.64c0.1,4.44,0.02,8.88,0.02,13.53c4.34,0.94,8.25,2.13,12.25,2.57c3.84,0.43,7.76,0.09,12.85,0.09
		c0,3.38,0.48,6.41-0.2,9.16c-0.34,1.4-2.86,3.36-4.24,3.24c-21.12-1.79-42.21-3.89-63.3-5.9c-0.82-0.08-1.67,0.08-2.51,0.13
		C79.94,347.77,79.94,343.29,79.94,338.82z M111.94,342.82c-0.69-7.81,5.63-15.5-3.47-19.79c-2.8-1.32-7.62-1.45-10.06,0.13
		c-6.11,3.94-5.98,10.47-4.43,17.73C99.64,341.49,105.24,342.1,111.94,342.82z"/>
	<path class="st4" d="M633.73,367.35c-8.2-3.03-16.7-5.46-24.54-9.25c-11.36-5.49-23.15-6.74-35.43-6.05
		c-3.04,0.17-6.1,0.03-9.69,0.03c-0.51-3.36-0.98-6.42-1.79-11.7c26.01,3.78,46.37-9.87,67.98-21.86
		c2.42,7.22,3.81,12.59-4.68,15.89c-6.86,2.67-13.25,6.56-20.82,10.41c10.27,3.82,19.62,7.3,28.97,10.78
		C633.73,359.51,633.73,363.43,633.73,367.35z"/>
	<path class="st4" d="M236.06,186.79c-3.34,3.15-5.73,5.4-7.42,6.99c-9.81-8.27-19.27-16.23-27.7-23.33
		c1.68,4.73,4.33,11.21,6.18,17.91c0.66,2.38,0.28,6.58-1.25,7.66c-2,1.42-5.86,1.37-8.48,0.54c-6.42-2.03-12.59-4.86-19.99-5.97
		c7.08,7.11,14.09,14.29,21.28,21.28c3.13,3.05,5.11,5.45,1.08,9.62c-4.13,4.27-6.8,3.1-10.22-0.62
		c-13.9-15.1-27.96-30.05-41.93-45.03c4.45-7.53,9.33-9.75,17.59-5.02c8.27,4.74,17.6,7.63,27.94,11.96
		c-3.25-9.22-5.59-17.78-9.26-25.72c-3.89-8.42-5.51-15.53,4.98-20.67C204.26,152.85,220.01,169.66,236.06,186.79z"/>
	<path class="st4" d="M152.61,313.32c-19.38-6.52-38.72-13.32-58.28-19.43c-5.9-1.84-6.93-4.15-4.63-9.55
		c2.24-5.27,3.54-10.93,5.5-16.34c2.45-6.77,6.55-12.16,14.28-12.85c9.77-0.87,18.99,0.23,24.12,10.38
		c0.96,1.91,1.68,3.94,2.72,6.43c10.29-1.21,20.62-2.43,31.07-3.66c-2.02,13.13-3.79,14.55-16.68,15.03
		c-4.67,0.17-9.45,0.54-13.9,1.82c-2.28,0.66-3.93,3.51-7.55,7c7.89,2.71,13.64,4.73,19.41,6.66
		C158.62,302.12,158.98,303.34,152.61,313.32z M125.3,277.76c-1.76-6.84-4.47-10.7-10.33-11.14c-5.41-0.41-13.57,9.27-10.95,14.64
		c1.82,3.73,8.74,6.6,13.41,6.64C120.02,287.93,122.68,281.36,125.3,277.76z"/>
	<path class="st4" d="M280.08,621.91c-13.7-3.15-13.7-3.15-13.7-15.73c0-4.74,0.63-9.61-0.26-14.18c-0.48-2.46-3.36-4.72-5.68-6.31
		c-0.47-0.32-3.82,2.48-4.9,4.38c-1.89,3.29-3.22,6.94-4.47,10.55c-3.54,10.18-5.38,10.75-14.5,4.18
		c7.44-19.29,14.87-38.61,22.35-57.9c1.46-3.76,3.27-6.1,8.08-3.66c6.57,3.32,13.51,5.91,20.32,8.73
		c7.86,3.25,10.55,10.76,9.88,17.45c-0.78,7.74-2.92,16.94-12.9,19.1c-5.61,1.22-7.02,4.06-6.39,9.3
		C278.84,605.7,279.36,613.64,280.08,621.91z M269.12,557.07c-6.88,10.94-8.09,16.25-4.2,18.45c8.42,4.77,16.52,3.81,19.42-2.31
		C287.49,566.55,283.13,561.92,269.12,557.07z"/>
	<path class="st4" d="M432.22,164.45c-4.69-2.26-7.98-5.25-11.15-5.12c-16.51,0.64-27.11-11.26-23.52-29.78
		c1.7-8.76,5.08-17.24,8.19-25.66c4.01-10.84,15.68-17.33,29-12.91c10.44,3.46,16.43,16.16,12.83,28.68
		c-3.15,10.96-7.26,21.63-10.92,32.44c-0.43,1.27-1.38,3.07-0.88,3.84C439.83,162.24,433.67,162.99,432.22,164.45z M416.67,138.07
		c5.1,0,9.08,0,14.31,0c1.5-7.4,3.45-15.84,4.85-24.37c0.96-5.87-1.12-10.6-7.64-11.54c-6.32-0.9-10.73,2.14-12.61,8.2
		c-2.43,7.83-4.79,15.69-6.67,23.66c-1.78,7.54,2.97,12.71,11.22,12.86C419.23,144.61,418.35,142.37,416.67,138.07z"/>
	<path class="st4" d="M583.05,515.74c-20.59-12.26-40.05-23.85-59.74-35.57c3.58-6.24,6.75-11.85,9.99-17.41
		c7.25-12.42,17.88-16.72,30.55-10.8c9.36,4.38,18.22,10.09,26.63,16.14c7.31,5.26,9.69,15.75,5.88,23.71
		C592.49,499.87,587.69,507.48,583.05,515.74z M539.89,476.43c13.31,7.72,26.04,15.1,38.63,22.41c8.32-10.03,10.98-18.57-2.63-25.99
		c-3.6-1.96-6.83-4.61-10.47-6.48C551.53,459.21,546.6,461.12,539.89,476.43z"/>
	<path class="st4" d="M152.84,239.19c5.41,3.15,9.79,5.7,14.3,8.32c5.46-8.47,10.35-16.04,15.39-23.85
		c3.36,1.99,6.48,3.83,10.22,6.04c-7.4,11.86-14.61,23.42-21.92,35.14c-20.12-12.52-39.31-24.47-59.15-36.82
		c7.14-11.68,14.11-23.08,21.69-35.49c3.28,2.3,6.48,4.54,9.98,7c-5.12,8.35-9.91,16.18-14.96,24.42c3.63,2.4,6.8,5.02,10.43,6.62
		c1.32,0.58,4.45-0.71,5.49-2.1c3.91-5.23,7.3-10.85,11.12-16.7c3.32,1.92,6.26,3.62,10.1,5.83
		C161.49,224.46,157.43,231.37,152.84,239.19z"/>
	<path class="st4" d="M507.01,514.31c4.85,4.39,8.5,7.68,13.5,12.21c3.39-3.82,6.94-7.32,9.91-11.25c5.24-6.94,9.7-6.13,14.54,2.01
		c-5.88,4.69-12.15,9.69-18.41,14.69c0.66,0.63,1.32,1.26,1.99,1.88c3.72,3.57,7.43,7.14,11.89,11.42
		c5.24-6.26,11.08-13.23,16.92-20.21c0.75,0.59,1.5,1.18,2.24,1.77c2.28,1.43,4.96,2.5,6.67,4.43c0.94,1.06,1.08,4.41,0.18,5.29
		c-8.75,8.55-17.8,16.8-27.34,25.68c-15.29-14.7-31.82-30.59-48.42-46.54c10.33-9.89,19.91-19.06,30.15-28.87
		c1.78,1.95,4.15,4.54,7.7,8.43C521.34,501.63,514.27,507.88,507.01,514.31z"/>
	<path class="st4" d="M182.15,481.81c-4.83-1.08-8.52-1.91-9.78-2.19c-2.74-6.37-3.84-11.99-7.1-15.76
		c-4.21-4.86-9.71-1.21-14.14,1.1c-6.56,3.43-13.08,7.1-19.07,11.42c-4.34,3.12-7.51,7.78-4.07,13.45c3.16,5.21,8.01,7.22,14.02,5.1
		c1.77-0.62,3.39-1.67,5.47-2.72c-1.45-2.88-2.78-5.53-4.53-9c2.57-2.03,5.32-4.2,8.63-6.81c4.09,6.91,7.96,13.43,12.34,20.83
		c-6.63,3.25-12.96,7.03-19.75,9.53c-10.46,3.86-20.28-0.41-26.56-10.57c-4.65-7.51-3.5-20.81,4.03-26.45
		c9.83-7.36,20.27-14.48,31.47-19.29c13.43-5.77,28.77,6.04,29.03,20.72C182.2,474.21,182.15,477.25,182.15,481.81z"/>
	<path class="st4" d="M449.55,541.92c10.92-6.91,21.11-13.83,31.89-19.66c1.58-0.86,5.97,3.46,10.67,6.4
		c-9.93,6.51-17.62,11.55-25.97,17.01c2.74,4.37,5.53,8.82,8.69,13.86c6.9-4.29,13.12-8.16,20.44-12.72c2.01,2.94,4.2,6.12,6.66,9.7
		c-5.12,3.34-9.24,6.45-13.74,8.84c-5.55,2.95-7.8,5.89-2.55,11.29c1.96,2.01,2.9,5.02,4.55,8.02c8.58-5.47,16.38-10.43,24.66-15.7
		c1.89,3.05,3.81,6.15,6.17,9.95c-11.44,7.26-22.68,14.4-34.56,21.93C474.02,580.98,461.98,561.76,449.55,541.92z"/>
	<path class="st4" d="M235.9,108.44c9.86-6.68,11.37-6.21,15.05,3.34c4.33,11.23,9.15,22.28,13.14,33.63
		c2.45,6.96,6.71,10.1,13.65,8.2c6.6-1.8,9.16-7.79,6.54-15.54c-3.33-9.83-7.4-19.42-11.16-29.11c-1.77-4.55-3.56-9.09-5.38-13.71
		c3.72-1.6,6.94-2.99,11.53-4.97c6.22,17.19,12.9,34.15,18.38,51.48c2.35,7.44-7.21,20.74-15.16,23.54
		c-10.51,3.71-22.73-0.91-27.88-11.97C247.83,138.75,242.17,123.63,235.9,108.44z"/>
	<path class="st4" d="M504.52,123.31c3.71,2.38,6.65,4.27,10.19,6.54c-8.76,14.79-17.09,29.47-26.06,43.76
		c-4.9,7.8-18.52,10.2-27.34,5.72c-10.35-5.27-16.41-16.76-11.93-26.3c6.85-14.6,14.89-28.67,23.05-42.6c4-6.83,7.8-0.46,12.65,1.86
		c-5.84,10.31-11.61,20.47-17.35,30.63c-2.15,3.81-4.68,7.49-6.28,11.52c-2.15,5.44-1.15,10.7,4.2,13.78
		c4.8,2.77,9.94,2.35,13.22-2.55c5.62-8.4,10.8-17.11,16.05-25.76C498.05,134.77,500.96,129.5,504.52,123.31z"/>
	<path class="st4" d="M216.14,507.84c3.47,3.64,5.75,6.03,8.93,9.37c-12.8,11.97-24.98,24.11-38,35.27
		c-8.14,6.98-19.45,5.23-27.62-2.67c-8.36-8.08-11.08-20.46-4-28.19c11.57-12.64,24.61-23.93,37.69-36.42
		c1.84,1.75,4.38,4.18,7.97,7.6c-10.91,10.58-21.93,20.7-32.17,31.56c-2.76,2.93-5.02,8.48-4.25,12.15
		c1.78,8.47,11.77,10.28,18.32,3.93C194,529.8,204.82,519,216.14,507.84z"/>
	<path class="st4" d="M543.4,154.4c4.63,3.37,7.8,6.4,4.69,12.62c-9.69,19.37-18.94,38.97-28.94,59.68
		c-4.26-5.45-12.86-8.01-4.94-16.56c0.88-0.95,0.2-4.62-0.97-5.97c-3.46-3.98-7.34-7.66-11.46-10.96c-1.27-1.01-4.71-1.32-5.66-0.4
		c-7.89,7.6-11.75,1.23-16.36-4.67C500.88,176.95,521.9,165.8,543.4,154.4z M509.91,185.47c4.74,3.9,8.05,6.62,12.04,9.91
		c3.46-7.2,6.61-13.74,9.76-20.27c-0.49-0.31-0.97-0.62-1.46-0.93C523.77,177.77,517.28,181.38,509.91,185.47z"/>
	<path class="st4" d="M201.67,570.3c-9.25,8.78-9.26,10.14-19.77,1.27c9.89-8.04,19.61-16,29.39-23.86
		c7.71-6.2,15.39-12.47,23.37-18.3c1.73-1.26,5.18-1.72,7.01-0.84c1.91,0.92,4.37,4.29,3.95,5.92
		c-5.69,22.23-11.83,44.34-17.96,66.85c-7.45-2.92-11.99-6.34-8.24-14.73c0.6-1.35-0.8-4.56-2.23-5.68
		C212.27,577.12,206.93,573.84,201.67,570.3z M231.39,548.26c-0.45-0.31-0.9-0.62-1.35-0.93c-5.99,4.92-11.97,9.83-18.7,15.36
		c4.48,3.11,8.16,5.66,12.73,8.84C226.75,563,229.07,555.63,231.39,548.26z"/>
	<path class="st4" d="M287.87,624.2c4.98-10.24,9.63-20.1,14.55-29.82c4.97-9.81,10.02-19.59,15.49-29.13
		c1.23-2.14,4.41-4.45,6.6-4.36c1.91,0.08,4.88,3.18,5.33,5.37c3.09,15,5.67,30.11,8.34,45.2c1.14,6.45,2.08,12.93,3.12,19.4
		c-10.2,3.15-10.84,2.57-13.06-6.99c-0.55-2.37-3.32-5.23-5.67-5.97c-4.66-1.47-9.73-1.88-14.65-2.14
		c-1.31-0.07-3.62,1.79-3.97,3.14C301.58,628.12,295.8,627.64,287.87,624.2z M325.47,607.1c-0.89-7.92-1.75-15.54-2.61-23.17
		c-0.72-0.13-1.45-0.27-2.17-0.4c-3.32,6.99-6.64,13.98-10.19,21.48C316.24,605.81,320.25,606.37,325.47,607.1z"/>
	<path class="st4" d="M606.95,270.02c10.71-4.76,10.7-4.76,13.61,6.06c2.9,10.79,5.83,21.57,8.91,32.97
		c-4.27,1.23-7.57,2.18-10.57,3.05c-0.85-0.93-1.44-1.28-1.54-1.73c-2.76-13.57-2.76-13.6-15.93-10.38
		c-11.42,2.79-23.09,4.89-34.14,8.77c-9.28,3.26-11.07-1.13-12.19-9.38c15.06-3.85,30.1-7.61,45.09-11.54
		c11.06-2.9,11.04-3,7.96-14.06C607.81,272.49,607.35,271.24,606.95,270.02z"/>
	<path class="st4" d="M420.3,565.07c-5.64,2.12-9.96,3.75-14.87,5.6c-1.48-3.38-2.84-6.47-4.67-10.63
		c13.88-4.96,27.64-9.88,42.17-15.07c1.52,3.68,2.93,7.08,4.29,10.36c-0.61,0.62-0.92,1.12-1.36,1.35
		c-4.47,2.28-11.56,3.61-12.75,7.01c-1.36,3.88,2.51,9.61,4.14,14.53c4.12,12.42,8.25,24.83,12.55,37.77
		c-4.01,1.41-7.22,2.54-11.02,3.89C432.53,601.34,426.47,583.35,420.3,565.07z"/>
	<path class="st4" d="M542.24,263.92c-7.45-11.57-14.49-22.51-21.81-33.87c19.9-12.84,38.9-25.1,58.21-37.56
		c2.25,3.06,4.17,5.65,6.97,9.46c-7.91,5.29-15.71,10.57-23.59,15.74c-6.17,4.05-12.23,8.33-18.71,11.82
		c-6.25,3.37-5.69,6.67-1.84,11.61c3.82,4.89,6.83,10.42,10.55,16.23C548.62,259.63,545.76,261.56,542.24,263.92z"/>
	<path class="st4" d="M218.71,117.64c11.92,19.57,23.85,39.16,35.96,59.06c-3.31,2.24-6.21,4.2-10.01,6.76
		c-6.9-11.17-13.61-21.95-20.23-32.77c-3.57-5.83-6.93-11.79-10.47-17.63C208.08,123.33,208.05,123.34,218.71,117.64z"/>
	<path class="st4" d="M607.91,243.45c5.14,10.92,5.03,10.66-5.18,15c-17.59,7.48-35.04,15.32-52.51,22.99
		c-7.37-9.72-7.41-10.02,3.01-14.57C571.26,259,589.4,251.36,607.91,243.45z"/>
</g>
<polygon class="st4" points="357.32,253.69 338.53,263.57 342.12,242.65 326.93,227.84 347.93,224.79 357.32,205.76 366.71,224.79 
	387.71,227.84 372.51,242.65 376.1,263.57 "/>
<polygon class="st4" points="437.97,274.73 419.18,284.6 422.77,263.69 407.58,248.88 428.58,245.83 437.97,226.8 447.36,245.83 
	468.36,248.88 453.16,263.69 456.75,284.6 "/>
<polygon class="st4" points="273.16,275.9 254.38,285.77 257.96,264.86 242.77,250.05 263.77,247 273.16,227.97 282.55,247 
	303.55,250.05 288.35,264.86 291.94,285.77 "/>
<polygon class="st4" points="358.48,496.81 339.7,506.68 343.29,485.77 328.1,470.96 349.09,467.91 358.48,448.88 367.88,467.91 
	388.87,470.96 373.68,485.77 377.27,506.68 "/>
<polygon class="st4" points="441.47,474.6 422.69,484.48 426.28,463.56 411.08,448.75 432.08,445.7 441.47,426.67 450.86,445.7 
	471.86,448.75 456.67,463.56 460.25,484.48 "/>
<polygon class="st4" points="271.99,471.1 253.21,480.97 256.8,460.06 241.6,445.24 262.6,442.19 271.99,423.17 281.38,442.19 
	302.38,445.24 287.19,460.06 290.77,480.97 "/>
</svg>
