<?xml version="1.0" encoding="utf-8"?>
<!-- Generator: Adobe Illustrator 26.0.2, SVG Export Plug-In . SVG Version: 6.00 Build 0)  -->
<svg version="1.1" id="Layer_1" xmlns="http://www.w3.org/2000/svg" xmlns:xlink="http://www.w3.org/1999/xlink" x="0px" y="0px"
	 viewBox="0 0 720 720" style="enable-background:new 0 0 720 720;" xml:space="preserve">
<style type="text/css">
	.st0{display:none;fill:#FBB040;}
	.st1{display:none;}
	.st2{display:inline;}
	.st3{font-family:'FFFCagliari2019';}
	.st4{font-size:143.1375px;}
	.st5{font-family:'MyriadPro-Regular';}
	.st6{fill:#FFFFFF;}
	.st7{display:none;fill:#FFFFFF;}
</style>
<polygon class="st0" points="360.29,17.88 382.89,0.59 403.15,20.58 427.74,6.26 445.34,28.62 471.53,17.5 486.18,41.9 
	513.57,34.14 525.05,60.18 553.18,55.92 561.31,83.2 589.76,82.49 594.4,110.57 622.71,113.44 623.8,141.88 651.53,148.28 
	649.05,176.63 675.76,186.45 669.74,214.26 695.01,227.35 685.55,254.2 708.98,270.35 696.23,295.79 717.45,314.76 701.61,338.4 
	720.29,359.88 701.61,381.35 717.45,405 696.23,423.96 708.98,449.41 685.55,465.56 695.01,492.4 669.74,505.5 675.76,533.31 
	649.05,543.13 651.53,571.48 623.8,577.88 622.71,606.32 594.4,609.19 589.76,637.26 561.31,636.56 553.18,663.84 525.05,659.58 
	513.57,685.62 486.18,677.86 471.53,702.26 445.34,691.13 427.74,713.5 403.15,699.18 382.89,719.17 360.29,701.88 337.68,719.17 
	317.42,699.18 292.83,713.5 275.23,691.13 249.04,702.26 234.39,677.86 207.01,685.62 195.53,659.58 167.39,663.84 159.26,636.56 
	130.81,637.26 126.17,609.19 97.86,606.32 96.77,577.88 69.04,571.48 71.53,543.13 44.82,533.31 50.83,505.5 25.57,492.4 
	35.02,465.56 11.6,449.41 24.34,423.96 3.12,405 18.96,381.35 0.29,359.88 18.96,338.4 3.12,314.76 24.34,295.79 11.6,270.35 
	35.02,254.2 25.57,227.35 50.83,214.26 44.82,186.45 71.53,176.63 69.04,148.28 96.77,141.88 97.86,113.44 126.17,110.57 
	130.81,82.49 159.26,83.2 167.39,55.92 195.53,60.18 207.01,34.14 234.39,41.9 249.04,17.5 275.23,28.62 292.83,6.26 317.42,20.58 
	337.68,0.59 "/>
<circle class="st1" cx="360.29" cy="359.88" r="296.99"/>
<circle class="st0" cx="360.29" cy="359.88" r="196.82"/>
<text transform="matrix(0.9804 0 0 1 216.1704 402.8193)" class="st1"><tspan x="0" y="0" class="st2 st3 st4">100</tspan><tspan x="180.64" y="0" class="st2 st5 st4">%</tspan></text>
<g>
	<path class="st6" d="M361.99,77.79c2.3,23.37,4.61,46.73,6.9,70c-12.14,3.03-13.25,2.01-13.63-9.46
		c-0.29-8.54-1.36-17.06-3.8-26.02c-2.23,6.34-4.16,12.81-6.83,18.97c-1.02,2.36-3.63,5.5-5.65,5.6c-2.39,0.12-5.71-2.12-7.23-4.3
		c-3.59-5.13-6.35-10.84-11.16-15.93c0.68,9.35,1.6,18.69,1.96,28.06c0.38,9.81,0.14,9.82-11.18,9.25
		c-2.32-23.16-4.64-46.44-6.99-69.88c8.83-2.93,14.36-0.76,18.05,8.06c3.63,8.66,8.8,16.66,14.26,26.75
		c3.74-11.12,6.54-20.81,10.33-30.1c1.67-4.09,5.36-7.36,8.14-11C357.44,77.79,359.72,77.79,361.99,77.79z"/>
	<path class="st6" d="M356.88,641.96c-1.59-18.67-3.26-37.34-4.71-56.02c-0.37-4.75-0.06-9.55-0.06-14.35
		c7.61-3.08,12.1-0.22,16.05,6.08c6.74,10.74,14.15,21.07,22.97,30.98c-0.97-11.23-1.69-22.48-3.03-33.67
		c-0.52-4.39-0.12-7.91,4.8-7.55c2.79,0.2,7.62,2.76,7.76,4.55c1.63,21.3,2.55,42.66,3.63,64.01c0.03,0.51-0.34,1.05-0.62,1.86
		c-5.49,1.2-9.5,0.59-13.1-5.25c-7.08-11.49-15.36-22.24-24.33-34.99c0.87,15.2,1.63,28.4,2.36,41.2c-3.82,1.2-6.92,2.17-10.02,3.14
		C358.01,641.96,357.44,641.96,356.88,641.96z"/>
	<path class="st6" d="M79.05,341.98c0.62-3.09,1.67-6.17,1.8-9.28c0.48-11.86,9.96-21.37,21.49-21.23
		c12.87,0.15,22.26,8.85,22.54,20.96c0.1,4.51,0.02,9.02,0.02,13.74c4.4,0.96,8.38,2.16,12.44,2.61c3.9,0.43,7.89,0.09,13.06,0.09
		c0,3.43,0.49,6.51-0.2,9.3c-0.35,1.42-2.9,3.41-4.3,3.29c-21.45-1.82-42.87-3.96-64.3-5.99c-0.84-0.08-1.7,0.08-2.54,0.13
		C79.05,351.07,79.05,346.53,79.05,341.98z M111.55,346.05c-0.7-7.93,5.71-15.74-3.52-20.1c-2.85-1.34-7.74-1.47-10.21,0.13
		c-6.2,4-6.07,10.64-4.5,18.01C99.06,344.7,104.75,345.32,111.55,346.05z"/>
	<path class="st6" d="M641.52,370.96c-8.33-3.08-16.96-5.54-24.93-9.39c-11.54-5.58-23.51-6.84-35.98-6.14
		c-3.09,0.17-6.2,0.03-9.84,0.03c-0.52-3.41-1-6.52-1.82-11.88c26.42,3.84,47.09-10.02,69.05-22.2c2.45,7.34,3.87,12.79-4.75,16.14
		c-6.97,2.71-13.45,6.67-21.15,10.57c10.43,3.88,19.93,7.42,29.43,10.95C641.52,363,641.52,366.98,641.52,370.96z"/>
	<path class="st6" d="M237.61,187.58c-3.39,3.2-5.82,5.49-7.53,7.1c-9.97-8.39-19.57-16.48-28.13-23.7
		c1.71,4.8,4.4,11.38,6.28,18.19c0.67,2.42,0.28,6.69-1.27,7.78c-2.04,1.44-5.95,1.39-8.61,0.55c-6.52-2.06-12.79-4.94-20.3-6.06
		c7.19,7.22,14.31,14.51,21.62,21.62c3.18,3.1,5.19,5.53,1.09,9.77c-4.2,4.34-6.9,3.14-10.38-0.63
		c-14.12-15.33-28.4-30.52-42.59-45.73c4.52-7.65,9.48-9.91,17.86-5.09c8.4,4.82,17.87,7.75,28.38,12.14
		c-3.3-9.36-5.67-18.06-9.41-26.13c-3.96-8.55-5.59-15.77,5.05-20.99C205.32,153.11,221.31,170.17,237.61,187.58z"/>
	<path class="st6" d="M152.86,316.09c-19.68-6.62-39.33-13.53-59.19-19.74c-5.99-1.87-7.04-4.22-4.7-9.7
		c2.28-5.35,3.6-11.1,5.58-16.59c2.49-6.88,6.65-12.35,14.5-13.05c9.92-0.89,19.29,0.23,24.5,10.54c0.98,1.94,1.7,4,2.77,6.53
		c10.45-1.23,20.94-2.47,31.56-3.72c-2.05,13.33-3.85,14.78-16.94,15.27c-4.74,0.18-9.6,0.55-14.12,1.85
		c-2.32,0.67-3.99,3.57-7.67,7.1c8.01,2.75,13.85,4.8,19.72,6.76C158.97,304.71,159.33,305.95,152.86,316.09z M125.13,279.97
		c-1.78-6.95-4.54-10.87-10.5-11.32c-5.5-0.41-13.79,9.42-11.12,14.87c1.85,3.78,8.88,6.7,13.62,6.75
		C119.76,290.3,122.46,283.63,125.13,279.97z"/>
	<path class="st6" d="M282.33,629.51c-13.91-3.2-13.91-3.2-13.92-15.98c0-4.82,0.64-9.76-0.27-14.41c-0.49-2.5-3.41-4.79-5.77-6.41
		c-0.47-0.33-3.88,2.52-4.98,4.45c-1.92,3.35-3.27,7.05-4.54,10.72c-3.6,10.34-5.46,10.92-14.73,4.24
		c7.56-19.59,15.1-39.21,22.7-58.81c1.48-3.82,3.32-6.19,8.21-3.72c6.67,3.37,13.72,6,20.64,8.86c7.98,3.3,10.71,10.93,10.03,17.72
		c-0.79,7.86-2.96,17.2-13.1,19.4c-5.7,1.24-7.13,4.12-6.49,9.45C281.07,613.05,281.59,621.11,282.33,629.51z M271.2,563.66
		c-6.98,11.11-8.21,16.51-4.27,18.74c8.56,4.85,16.78,3.87,19.72-2.35C289.86,573.28,285.42,568.58,271.2,563.66z"/>
	<path class="st6" d="M436.85,164.89c-4.77-2.29-8.11-5.33-11.32-5.2c-16.77,0.65-27.53-11.44-23.88-30.25
		c1.72-8.89,5.16-17.51,8.32-26.06c4.07-11.01,15.92-17.6,29.45-13.11c10.6,3.52,16.68,16.41,13.03,29.13
		c-3.2,11.13-7.37,21.97-11.09,32.95c-0.44,1.29-1.4,3.11-0.89,3.9C444.58,162.64,438.32,163.4,436.85,164.89z M421.06,138.09
		c5.18,0,9.22,0,14.53,0c1.52-7.51,3.5-16.09,4.93-24.76c0.98-5.96-1.14-10.77-7.76-11.72c-6.42-0.92-10.9,2.18-12.81,8.33
		c-2.46,7.95-4.86,15.94-6.78,24.03c-1.81,7.65,3.01,12.91,11.4,13.07C423.65,144.74,422.76,142.46,421.06,138.09z"/>
	<path class="st6" d="M590.04,521.68c-20.91-12.45-40.68-24.22-60.68-36.13c3.63-6.34,6.85-12.03,10.15-17.68
		c7.36-12.62,18.16-16.99,31.03-10.96c9.5,4.45,18.51,10.25,27.05,16.39c7.42,5.34,9.84,16,5.97,24.08
		C599.63,505.56,594.76,513.29,590.04,521.68z M546.21,481.75c13.52,7.84,26.44,15.34,39.24,22.76
		c8.45-10.19,11.16-18.86-2.67-26.39c-3.65-1.99-6.94-4.68-10.63-6.59C558.03,464.26,553.02,466.2,546.21,481.75z"/>
	<path class="st6" d="M153.09,240.8c5.5,3.2,9.95,5.79,14.52,8.45c5.55-8.6,10.51-16.29,15.63-24.22c3.41,2.02,6.59,3.89,10.38,6.14
		c-7.52,12.05-14.84,23.78-22.26,35.69c-20.43-12.72-39.93-24.85-60.08-37.39c7.25-11.87,14.33-23.44,22.03-36.04
		c3.34,2.34,6.58,4.61,10.14,7.1c-5.2,8.48-10.07,16.43-15.2,24.8c3.69,2.44,6.91,5.1,10.59,6.72c1.34,0.59,4.52-0.72,5.58-2.13
		c3.97-5.31,7.41-11.02,11.3-16.96c3.38,1.95,6.36,3.68,10.25,5.92C161.88,225.84,157.76,232.86,153.09,240.8z"/>
	<path class="st6" d="M512.81,520.22c4.93,4.45,8.63,7.8,13.72,12.4c3.45-3.88,7.04-7.44,10.06-11.43
		c5.32-7.05,9.85-6.23,14.77,2.04c-5.97,4.77-12.34,9.84-18.7,14.92c0.67,0.64,1.34,1.28,2.02,1.91c3.77,3.62,7.55,7.25,12.08,11.6
		c5.32-6.36,11.26-13.44,17.19-20.52c0.76,0.6,1.52,1.2,2.28,1.8c2.31,1.45,5.04,2.54,6.78,4.5c0.96,1.08,1.1,4.48,0.18,5.38
		c-8.89,8.69-18.07,17.07-27.77,26.09c-15.53-14.93-32.32-31.06-49.18-47.27c10.49-10.04,20.22-19.36,30.62-29.32
		c1.81,1.98,4.21,4.61,7.82,8.56C527.36,507.34,520.19,513.7,512.81,520.22z"/>
	<path class="st6" d="M182.86,487.22c-4.91-1.1-8.66-1.94-9.93-2.22c-2.78-6.47-3.9-12.18-7.21-16c-4.27-4.94-9.86-1.23-14.36,1.12
		c-6.66,3.49-13.28,7.21-19.37,11.6c-4.4,3.17-7.62,7.9-4.14,13.66c3.21,5.29,8.13,7.33,14.24,5.18c1.8-0.63,3.44-1.7,5.56-2.76
		c-1.47-2.92-2.83-5.62-4.6-9.14c2.61-2.06,5.41-4.27,8.76-6.92c4.16,7.02,8.08,13.64,12.54,21.15c-6.74,3.31-13.16,7.14-20.06,9.68
		c-10.63,3.92-20.59-0.41-26.98-10.74c-4.72-7.63-3.56-21.14,4.09-26.86c9.99-7.48,20.58-14.7,31.97-19.6
		c13.64-5.86,29.22,6.14,29.49,21.05C182.91,479.49,182.86,482.59,182.86,487.22z"/>
	<path class="st6" d="M454.45,548.27c11.09-7.02,21.44-14.05,32.39-19.97c1.61-0.87,6.06,3.52,10.84,6.5
		c-10.09,6.61-17.9,11.73-26.37,17.28c2.79,4.44,5.62,8.96,8.83,14.08c7.01-4.36,13.33-8.29,20.76-12.92
		c2.05,2.98,4.26,6.21,6.76,9.85c-5.2,3.39-9.38,6.55-13.96,8.98c-5.63,2.99-7.92,5.99-2.59,11.46c1.99,2.05,2.94,5.1,4.62,8.15
		c8.72-5.55,16.64-10.6,25.04-15.95c1.92,3.1,3.87,6.24,6.27,10.11c-11.62,7.38-23.04,14.62-35.1,22.27
		C479.3,587.94,467.08,568.42,454.45,548.27z"/>
	<path class="st6" d="M237.46,108c10.01-6.79,11.55-6.3,15.29,3.39c4.4,11.41,9.3,22.63,13.35,34.16
		c2.49,7.07,6.81,10.26,13.86,8.33c6.7-1.83,9.31-7.91,6.64-15.78c-3.39-9.99-7.51-19.73-11.33-29.57
		c-1.79-4.62-3.62-9.23-5.46-13.92c3.78-1.63,7.05-3.04,11.71-5.05c6.32,17.45,13.1,34.68,18.67,52.29
		c2.39,7.55-7.32,21.06-15.4,23.91c-10.68,3.77-23.09-0.92-28.31-12.15C249.58,138.78,243.82,123.42,237.46,108z"/>
	<path class="st6" d="M510.29,123.1c3.77,2.42,6.75,4.33,10.35,6.64c-8.89,15.02-17.35,29.93-26.46,44.44
		c-4.98,7.92-18.81,10.36-27.77,5.81c-10.52-5.35-16.67-17.02-12.12-26.71c6.96-14.82,15.13-29.12,23.42-43.27
		c4.06-6.94,7.92-0.47,12.85,1.89c-5.94,10.48-11.79,20.79-17.62,31.11c-2.19,3.87-4.75,7.6-6.38,11.7
		c-2.19,5.52-1.17,10.86,4.27,14c4.87,2.81,10.09,2.39,13.43-2.59c5.71-8.54,10.96-17.38,16.3-26.16
		C503.72,134.74,506.67,129.39,510.29,123.1z"/>
	<path class="st6" d="M217.39,513.65c3.52,3.7,5.84,6.13,9.07,9.52c-13,12.16-25.37,24.49-38.59,35.83
		c-8.27,7.09-19.75,5.31-28.06-2.71c-8.49-8.2-11.25-20.78-4.06-28.63c11.75-12.84,25-24.31,38.28-36.99
		c1.87,1.78,4.45,4.24,8.1,7.71c-11.09,10.75-22.27,21.03-32.67,32.06c-2.8,2.97-5.1,8.61-4.32,12.34
		c1.8,8.6,11.95,10.44,18.61,3.99C194.9,535.96,205.89,524.99,217.39,513.65z"/>
	<path class="st6" d="M549.77,154.68c4.71,3.42,7.93,6.5,4.77,12.82c-9.84,19.67-19.23,39.58-29.39,60.62
		c-4.33-5.54-13.06-8.13-5.02-16.82c0.9-0.97,0.21-4.69-0.98-6.06c-3.51-4.04-7.45-7.78-11.64-11.13c-1.29-1.03-4.78-1.34-5.75-0.41
		c-8.01,7.72-11.94,1.25-16.62-4.74C506.58,177.58,527.94,166.26,549.77,154.68z M515.76,186.23c4.81,3.96,8.17,6.72,12.23,10.06
		c3.52-7.31,6.71-13.95,9.91-20.59c-0.49-0.32-0.99-0.63-1.48-0.95C529.83,178.42,523.24,182.08,515.76,186.23z"/>
	<path class="st6" d="M202.69,577.09c-9.39,8.91-9.4,10.3-20.08,1.29c10.05-8.16,19.91-16.25,29.85-24.24
		c7.83-6.3,15.63-12.66,23.74-18.59c1.75-1.28,5.26-1.75,7.12-0.85c1.94,0.93,4.44,4.36,4.01,6.01
		c-5.77,22.58-12.01,45.03-18.24,67.9c-7.56-2.97-12.18-6.44-8.37-14.96c0.61-1.37-0.81-4.63-2.27-5.76
		C213.45,584.02,208.03,580.69,202.69,577.09z M232.87,554.71c-0.46-0.32-0.91-0.63-1.37-0.95c-6.08,4.99-12.16,9.98-19,15.6
		c4.55,3.16,8.28,5.75,12.93,8.98C228.16,569.68,230.52,562.19,232.87,554.71z"/>
	<path class="st6" d="M290.24,631.83c5.06-10.4,9.78-20.41,14.78-30.29c5.05-9.96,10.18-19.9,15.74-29.58
		c1.25-2.17,4.48-4.52,6.7-4.43c1.94,0.08,4.96,3.23,5.42,5.46c3.14,15.24,5.76,30.59,8.47,45.91c1.16,6.55,2.11,13.13,3.17,19.7
		c-10.36,3.2-11.01,2.61-13.26-7.1c-0.56-2.41-3.38-5.31-5.76-6.06c-4.74-1.49-9.88-1.91-14.88-2.17c-1.34-0.07-3.68,1.81-4.04,3.19
		C304.16,635.82,298.29,635.33,290.24,631.83z M328.43,614.47c-0.91-8.04-1.78-15.79-2.65-23.53c-0.73-0.14-1.47-0.27-2.2-0.41
		c-3.37,7.1-6.74,14.2-10.35,21.82C319.05,613.16,323.13,613.73,328.43,614.47z"/>
	<path class="st6" d="M614.32,272.11c10.88-4.83,10.87-4.83,13.83,6.15c2.95,10.96,5.92,21.91,9.05,33.48
		c-4.34,1.25-7.69,2.21-10.73,3.09c-0.86-0.95-1.47-1.3-1.56-1.76c-2.8-13.78-2.8-13.82-16.18-10.54
		c-11.6,2.84-23.46,4.96-34.67,8.9c-9.42,3.31-11.24-1.15-12.38-9.53c15.3-3.91,30.57-7.73,45.8-11.72
		c11.24-2.95,11.22-3.05,8.09-14.28C615.19,274.62,614.73,273.35,614.32,272.11z"/>
	<path class="st6" d="M424.74,571.78c-5.73,2.16-10.12,3.81-15.1,5.69c-1.51-3.43-2.88-6.57-4.74-10.8
		c14.1-5.04,28.07-10.03,42.83-15.31c1.55,3.74,2.97,7.19,4.35,10.52c-0.62,0.63-0.93,1.14-1.38,1.37
		c-4.54,2.32-11.74,3.67-12.95,7.12c-1.38,3.94,2.55,9.76,4.21,14.75c4.18,12.61,8.38,25.21,12.75,38.36
		c-4.07,1.44-7.33,2.58-11.2,3.95C437.16,608.62,431.01,590.35,424.74,571.78z"/>
	<path class="st6" d="M548.6,265.91c-7.57-11.76-14.72-22.86-22.15-34.4c20.22-13.04,39.51-25.49,59.12-38.15
		c2.29,3.1,4.24,5.74,7.08,9.61c-8.04,5.37-15.96,10.73-23.96,15.98c-6.27,4.11-12.42,8.46-19.01,12.01
		c-6.35,3.42-5.78,6.78-1.87,11.79c3.88,4.97,6.94,10.59,10.72,16.49C555.07,261.56,552.16,263.51,548.6,265.91z"/>
	<path class="st6" d="M220,117.34c12.11,19.88,24.22,39.78,36.53,59.98c-3.37,2.27-6.31,4.26-10.17,6.86
		c-7.01-11.35-13.83-22.29-20.55-33.29c-3.62-5.92-7.04-11.97-10.63-17.91C209.19,123.12,209.16,123.14,220,117.34z"/>
	<path class="st6" d="M615.29,245.12c5.22,11.09,5.11,10.83-5.26,15.23c-17.87,7.6-35.59,15.56-53.34,23.35
		c-7.48-9.87-7.53-10.18,3.05-14.8C578.07,260.91,596.49,253.16,615.29,245.12z"/>
</g>
<polygon class="st7" points="360.77,255.52 341.7,265.55 345.34,244.31 329.91,229.27 351.23,226.17 360.77,206.84 370.31,226.17 
	391.64,229.27 376.21,244.31 379.85,265.55 "/>
<polygon class="st7" points="442.69,276.89 423.61,286.92 427.25,265.68 411.82,250.64 433.15,247.54 442.69,228.21 452.22,247.54 
	473.55,250.64 458.12,265.68 461.76,286.92 "/>
<polygon class="st7" points="275.3,278.08 256.22,288.11 259.87,266.87 244.43,251.82 265.76,248.73 275.3,229.4 284.84,248.73 
	306.16,251.82 290.73,266.87 294.37,288.11 "/>
<polygon class="st7" points="361.96,502.45 342.88,512.48 346.53,491.24 331.09,476.19 352.42,473.1 361.96,453.77 371.5,473.1 
	392.83,476.19 377.39,491.24 381.04,512.48 "/>
<polygon class="st7" points="446.25,479.9 427.17,489.92 430.81,468.68 415.38,453.64 436.71,450.54 446.25,431.21 455.79,450.54 
	477.11,453.64 461.68,468.68 465.32,489.92 "/>
<polygon class="st7" points="274.11,476.33 255.03,486.36 258.68,465.12 243.24,450.08 264.57,446.98 274.11,427.65 283.65,446.98 
	304.98,450.08 289.54,465.12 293.19,486.36 "/>
</svg>
