<?xml version="1.0" encoding="utf-8"?>
<!-- Generator: Adobe Illustrator 26.0.2, SVG Export Plug-In . SVG Version: 6.00 Build 0)  -->
<svg version="1.1" id="Layer_1" xmlns="http://www.w3.org/2000/svg" xmlns:xlink="http://www.w3.org/1999/xlink" x="0px" y="0px"
	 viewBox="0 0 400 200" style="enable-background:new 0 0 400 200;" xml:space="preserve">
<style type="text/css">
	.st0{fill:#0099FF;}
	.st1{fill:#FF0000;}
</style>
<g>
	<path class="st0" d="M91.93,83.88c-0.03-4.31-1.36-8.24-3.87-11.81C82.37,64,74.3,62.13,64.48,63.1c4.76,1.23,6.97,4.21,7.73,8.33
		c0.37,1.98,0.68,4.02,0.68,6.03c0.06,14.58,0.1,29.17-0.02,43.75c-0.02,2.87-0.09,5.86-1.5,8.53c-0.85,1.62-2.16,2.7-4.04,2.67
		c-1.78-0.03-3-1.08-3.78-2.65c-1-2.01-1.29-4.15-1.28-6.36c0.01-12.64,0.01-25.28-0.01-37.92C62.22,74.9,55.91,66.71,45.73,63.8
		c-3.6-1.03-7.23-0.74-10.86-0.73c-11.16,0.06-21.48,10.07-21.67,21.2c-0.17,9.72-0.05,19.45-0.03,29.17
		c0.03,12.76,11.35,22.91,22.57,22.2c3.64-0.23,4.57-0.9,4.62-4.61c0.07-4.46,0.04-8.91,0.01-13.37c-0.03-4.65-2.05-8.29-5.95-10.79
		c-1.33-0.85-1.88-1.8-1.87-3.35c0.05-9.88,0.06-19.77,0.06-29.65c0-1.83,0.38-3.57,1.24-5.15c0.81-1.48,2.04-2.61,3.84-2.57
		c1.83,0.04,3.18,0.94,4.08,2.61c0.89,1.63,1.07,3.36,1.07,5.17C42.84,86,42.76,98.07,42.9,110.14c0.06,5.83,0.56,11.86,4.28,17.01
		c2.84,3.94,8.24,8.13,13.76,8.72c0.04,0,0.08,0.02,0.13,0.02c1.81,0.37,3.62,0.48,5.43,0.47c0.19,0,0.39,0,0.59,0
		c0.48,0,0.96-0.01,1.44-0.01c0,0,0,0,0.01,0c1.93-0.01,3.85-0.14,5.72-0.48c3.96-0.72,8.46-2.57,10.44-4.76
		c4.53-5.01,7.14-9.15,7.22-16.84C92.02,104.14,92,94.01,91.93,83.88z M35.35,116.34c0.15,4.84,0.05,9.69,0.05,14.54
		c-0.26,0.04-0.52,0.09-0.78,0.14c-3.55-5.97-1.44-12.6-2.19-19.59C34.49,113.02,35.3,114.62,35.35,116.34z"/>
	<path class="st0" d="M125.66,62.69c-1.65-0.14-2.15,0.35-1.36,1.9c0.81,1.61,1.36,3.33,1.53,5.1c1.17,12.21,0.38,24.44,0.57,36.67
		c0.02,1.3-0.62,1.92-1.93,1.91c-1.94-0.01-3.9-0.1-5.83,0.04c-2.27,0.17-2.96-0.79-2.93-2.98c0.1-7.21,0.18-14.42,0-21.63
		c-0.17-6.63,0.32-13.11,2.85-19.31c0.52-1.26,0.27-1.83-1.22-1.66C105,64.14,96.72,73.72,96.61,83.6c-0.03,2.91,0.16,5.8,0.15,8.7
		c-0.02,7.29,0.08,14.59-0.02,21.87c-0.12,8.46,4.17,14.19,11.05,18.36c4.86,2.95,10.24,3.2,15.74,3.08
		c11.16-0.24,20.93-9.33,21.88-20.52c-0.32-0.59-0.28-1.25-0.27-1.88c0.13-8.7,0-17.39,0.06-26.09c0.01-1.02-0.23-2.07,0.2-3.06
		c0,0,0-0.01,0-0.01s0-0.01,0-0.01C145.34,73.73,135.9,63.56,125.66,62.69z M126.41,118.57c-0.18,3.37-0.03,6.79-1.1,10.06
		c-0.71,2.14-2,3.78-4.5,3.72c-2.53-0.06-3.62-1.89-4.26-4c-1.4-4.59-0.71-9.3-0.72-13.97c0-1.21,0.95-1.62,2.02-1.62
		c2.1-0.02,4.2,0.02,6.3,0c1.67-0.01,2.31,0.86,2.27,2.43C126.39,116.3,126.41,117.43,126.41,118.57z"/>
	<path class="st0" d="M179.95,89.83c-0.18-5.57,0.27-11.16-0.49-16.72c-0.25-1.86-0.47-3.7-1.75-5.2c-2.18-2.53-5.06-2.37-6.86,0.43
		c-1.08,1.68-1.55,3.57-1.55,5.54c-0.02,16.91-0.02,33.82-0.01,50.72c0,1.56,0.36,3.05,0.94,4.49c0.78,1.97,2.12,3.31,4.35,3.25
		c2.12-0.05,3.39-1.45,4.13-3.26c1.13-2.75,0.93-5.72,1.17-8.6c0.19-2.25,0.06-4.53,0.07-6.79c0.55-1,1.52-0.74,2.37-0.74
		c4.11-0.02,8.21,0.01,12.32-0.02c0.79,0,1.61,0.22,2.36-0.24c1.99-0.13,1.95,1.24,1.91,2.59c-0.3,11.08-8.41,19.6-19.67,20.21
		c-5.86,0.32-11.82,0.71-17.39-2.09c-6.92-3.47-11.09-8.82-11.58-16.65c-0.74-11.64-0.88-23.3,0.03-34.92
		c0.74-9.46,9.77-17.89,19.48-18.72c6.96-0.59,13.72-0.25,19.76,4.03c5.99,4.24,9.15,9.94,9.36,17.21c0.07,2.3,0.56,4.69-0.45,6.94
		c-5.34-0.53-10.7-0.09-16.05-0.23C181.38,91.03,180.22,91.32,179.95,89.83z"/>
	<path class="st0" d="M168.29,48.51c0.19,0.95,0.43,1.89,0.57,2.84c0.68,4.58,3.45,7.18,8.3,7.78c0.71,0.09,1.47-0.12,2.27,0.43
		c-0.91,1.68-2.62,1.95-4.1,1.87c-6.46-0.33-12.68-1.52-18.03-5.58c-4.59-3.48-7.36-8.04-7.83-13.7c-0.39-4.66-0.63-9.4,0.22-14.05
		c1.77-9.69,10.41-17.33,20.28-17.99c7.18-0.48,14.13,0.12,19.97,5.01c5.1,4.27,8.2,9.5,8.1,16.37c-0.03,1.78-0.71,2.46-2.46,2.44
		c-4.7-0.05-9.4-0.07-14.1,0.01c-1.95,0.03-2.48-0.84-2.51-2.65c-0.06-4.12,0.43-8.26-0.4-12.36c-0.14-0.71-0.32-1.42-0.53-2.12
		c-0.62-2.05-1.91-3.44-4.14-3.5c-2.24-0.06-3.51,1.39-4.39,3.26c-0.85,1.8-0.6,3.83-1.22,5.68c-0.49,1.41-0.22,2.87-0.23,4.3
		c-0.03,6.53-0.02,13.06,0,19.59C168.06,46.93,167.84,47.76,168.29,48.51z"/>
	<path class="st0" d="M66.67,139.21c-0.07,15.31-0.06,30.63-0.08,45.94c-5.43,0-10.86-0.06-16.29,0.01c-1.99,0.03-2.7-0.71-2.7-2.7
		c0.07-15.32,0.06-30.63,0.07-45.94c5.43,0,10.86,0.07,16.29,0C65.96,136.48,66.68,137.21,66.67,139.21z"/>
	<path class="st0" d="M107.6,179.26c-2.05,2.61-4.48,4.35-7.52,5.05c-6.87,1.58-13.68,1.03-20.27-1.32
		c-5.24-1.86-8.32-5.93-10.26-10.98c-0.33-2.32-0.9-4.63-0.93-6.95c-0.11-8.57,0.01-17.13-0.09-25.7c-0.03-2.31,0.9-2.91,3.03-2.87
		c5.33,0.1,10.66,0.03,16,0.03c0.01,11.32,0,22.64,0.05,33.96c0.03,6.06,2.55,9.8,7.24,10.55c3.54,0.57,7.1,0.51,10.45-1.14
		C105.92,179.6,106.5,179.07,107.6,179.26z"/>
	<path class="st0" d="M229.1,79.21c0.69-8.95-6.01-13.17-12.25-13.35c-7.73-0.22-13.86,5-13.58,13.19
		c0.29,8.52,4.9,13.63,12.91,13.72C223.23,92.86,229.96,87.76,229.1,79.21z M218.83,87.24c-0.06,1.69-0.53,3.42-2.62,3.45
		c-2.01,0.03-2.52-1.7-2.55-3.24c-0.11-5.42-0.11-10.84,0.02-16.26c0.04-1.65,0.74-3.44,2.78-3.35c2.09,0.1,2.35,1.95,2.39,3.62
		c0.06,2.59,0.01,5.18,0.01,7.77c0,0,0,0-0.01,0C218.86,81.9,218.93,84.57,218.83,87.24z"/>
	<path class="st0" d="M216.65,107.55c-8.64-0.03-13.31,4.72-13.32,13.44c0,8.21,4.82,12.94,12.84,13.2
		c7.04,0.23,13.7-4.75,12.96-13.19C229.78,113.42,224.88,107.59,216.65,107.55z M218.88,128.48c0,0.98-0.11,1.95-0.65,2.8
		c-1.07,1.69-2.82,1.7-3.88,0.02c-0.62-0.99-0.81-2.1-0.81-3.25c0.01-4.69,0-9.38,0-14.07c0-0.4-0.01-0.82,0.07-1.21
		c0.35-1.63,0.8-3.42,2.88-3.26c1.91,0.14,2.29,1.87,2.34,3.45c0.08,2.67,0.02,5.34,0.02,8.01h0.02
		C218.88,123.47,218.89,125.98,218.88,128.48z"/>
</g>
<g>
	<path class="st1" d="M138.15,170.11l-0.21-0.22c-1.67-1.73-3.59-2.6-5.7-2.6l-2.27,0.38c-1.95,0.54-3.44,1.53-4.44,2.97
		c-0.44-0.69-0.66-1.51-0.66-2.47c0-1.47,0.49-2.65,1.48-3.6c1.01-0.96,2.22-1.43,3.71-1.43c1.04,0,1.85,0.22,2.45,0.65
		c0.05,0.04,0.37,0.29,1.3,1.46c0.38,0.76,1.09,1.2,1.95,1.2c1.42,0,2.3-0.83,2.3-2.15l-0.02-0.19c-0.1-0.52-0.34-1.05-0.73-1.58
		c-0.81-1.05-1.58-1.8-2.35-2.32c-1.42-0.93-3.07-1.4-4.9-1.4c-2.58,0-4.84,0.89-6.71,2.65c-1.9,1.78-2.86,4-2.86,6.59
		c0,2.58,0.88,4.82,2.62,6.67c1.76,1.86,3.96,2.8,6.54,2.8c1.39,0,2.73-0.29,4-0.86c1.25-0.57,2.28-1.26,3.07-2.05l0.94-1.27
		l0.84-1.37L138.15,170.11z M129.65,173.11c-0.15,0-0.29-0.01-0.43-0.02c0.08-0.09,0.16-0.17,0.25-0.25
		c0.82-0.69,1.74-1.03,2.78-1.03c0.38,0,0.69,0.03,0.93,0.07C132.21,172.71,131.05,173.11,129.65,173.11z"/>
	<path class="st1" d="M157.95,167.89c0,2.62-0.93,4.9-2.76,6.78c-1.84,1.89-4.1,2.85-6.72,2.85c-2.59,0-4.83-0.97-6.64-2.89
		c-1.81-1.9-2.72-4.17-2.72-6.74c0-1.71,0.44-3.37,1.32-4.94c0.87-1.55,2.03-2.84,3.43-3.83l0.17-0.11l1.05-0.21
		c1.26,0,2.09,0.8,2.23,2.15v0.1c0,0.41-0.14,1.19-1.07,1.78c-0.82,0.49-1.45,1.19-1.96,2.13c-0.5,0.94-0.76,1.93-0.76,2.93
		c0,1.43,0.49,2.63,1.49,3.68c0.99,1.04,2.13,1.54,3.46,1.54c1.45,0,2.63-0.5,3.6-1.52c0.99-1.04,1.46-2.25,1.46-3.7
		c0-1-0.25-1.99-0.76-2.93c-0.5-0.94-1.13-1.63-1.93-2.1c-0.39-0.21-0.91-0.68-1.03-1.62c-0.04-1.35,0.71-2.23,2-2.43l0.21-0.04
		l0.96,0.3c1.53,0.87,2.76,2.13,3.64,3.74C157.5,164.41,157.95,166.12,157.95,167.89z"/>
	<path class="st1" d="M172.9,150.88c0,1.36-0.88,2.2-2.29,2.2c-1.07,0-1.85-0.7-2.09-1.88c-0.1-0.6-0.33-1.02-0.71-1.31
		c-1.11-0.85-2.16-0.89-3.27,0c-0.26,0.21-0.71,0.62-0.71,0.99v2.08l0.16,23.1c-0.08,1.41-0.92,2.24-2.18,2.24
		c-0.03,0-0.08-0.01-0.08,0c-1.45,0-2.37-0.86-2.37-2.24v-25.18c0-0.28-0.08-0.65-0.65-1.06c-0.99-0.7-2.03-0.89-3.35,0.06
		c-0.48,0.35-0.73,0.68-0.73,1c0,0.72-0.31,1.34-0.88,1.74l-0.25,0.14l-0.84,0.29h-0.17c-1.39,0-2.26-0.83-2.26-2.17
		c0-1.75,0.73-3.22,2.15-4.39c1.36-1.11,2.91-1.68,4.61-1.68c1.87,0,3.42,0.57,4.63,1.69c0.4-0.34,0.86-0.65,1.37-0.93
		c0.92-0.5,1.98-0.76,3.15-0.76c1.7,0,3.25,0.57,4.61,1.68C172.17,147.66,172.9,149.13,172.9,150.88z"/>
	<path class="st1" d="M198.5,161.57c-1.85-1.83-4.11-2.7-6.63-2.68c-3.08-0.05-5.45,0.99-7.06,3.05c-1.68-2.02-4.06-3.05-7.09-3.05
		c-1.53,0-2.99,0.35-4.37,1.03c-0.76,0.4-1.51,0.95-2.21,1.6c-1.14,1-1.7,1.94-1.7,2.86c0,1.19,0.76,1.95,1.95,1.95
		c0.77,0,1.54-0.37,2.34-1.15l0.1-0.11c0.93-1.2,2.2-1.78,3.89-1.78c1.39,0,2.56,0.43,3.57,1.33c0.97,0.86,1.45,1.9,1.45,3.17v0.62
		c0,0.99-0.28,1.82-0.85,2.5c-0.88-1.69-2.25-2.83-4.11-3.41c-0.58-0.28-1.44-0.43-2.68-0.45c-1.98-0.09-3.86,0.69-5.6,2.33
		l-0.08,0.08c-0.39,0.46-0.6,1.05-0.6,1.68l0.15,0.62c0.08,0.43,0.34,0.87,0.81,1.38l0.67,0.99l0.08,0.11
		c1.95,2.18,4.37,3.28,7.19,3.28c1.67,0,3.26-0.45,4.74-1.33c0.93-0.56,1.71-1.21,2.34-1.93c1.61,2.17,3.98,3.26,7.06,3.26
		c2.59,0,4.83-0.92,6.67-2.74c1.83-1.82,2.76-4.05,2.76-6.62C201.29,165.61,200.35,163.39,198.5,161.57z M174.96,171.44
		c0.51,0,0.97,0.07,1.29,0.17c0.83,0.33,1.43,0.83,1.82,1.5c-0.11,0.01-0.23,0.02-0.35,0.02c-1.39,0-2.57-0.52-3.61-1.59
		C174.27,171.49,174.54,171.44,174.96,171.44z M195.36,171.64c-1.02,1-2.16,1.49-3.5,1.49c-1.27,0-2.32-0.39-3.21-1.2
		c-0.9-0.81-1.43-1.77-1.63-2.93l-0.06-1.01l0.05-0.79c0.24-1.18,0.79-2.11,1.67-2.86s1.92-1.12,3.18-1.12
		c1.39,0,2.55,0.47,3.54,1.44c0.98,0.96,1.46,2.11,1.46,3.5C196.86,169.51,196.37,170.65,195.36,171.64z"/>
	<path class="st1" d="M220.69,170.89c-0.15-1.13-0.55-2.18-1.19-3.14c-0.64-0.96-1.47-1.75-2.45-2.35
		c-0.42-0.27-0.88-0.49-1.37-0.67c0.51-0.09,0.95-0.37,1.28-0.8c0.45-0.59,0.6-1.29,0.42-2.03l-0.04-0.2l-0.12-0.16
		c-0.13-0.18-0.39-0.48-1.38-1.4c-0.61-0.51-1.25-0.87-1.9-1.05c-0.6-0.17-1.28-0.26-2.02-0.26c-1.57,0-2.88,0.51-3.92,1.57
		c-0.79,0.88-1.19,1.87-1.19,2.93c0,0.82,0.19,1.53,0.56,2.11c0.16,0.27,0.34,0.53,0.54,0.75c-0.75,0.02-1.48,0.19-2.16,0.5
		c-0.76,0.35-1.42,0.9-2,1.7c-0.58,0.94-0.87,1.96-0.87,3.02c0,1.35,0.42,2.61,1.25,3.75l0.07,0.09c0.78,0.84,1.86,1.46,3.21,1.84
		c0.78,0.21,1.94,0.33,3.61,0.35l0.56-0.03l-0.02,10.6c0,0.63,0.22,1.18,0.64,1.6s0.94,0.64,1.51,0.64c1.39,0,2.26-0.86,2.26-2.24
		v-10.93c0.16-0.04,0.33-0.08,0.53-0.13c0.97-0.29,1.67-0.6,2.2-0.99c1.33-1.14,2-2.81,2-4.94L220.69,170.89z M207.29,171.51
		c0-0.06,0-0.17,0.04-0.35c0.02-0.08,0.07-0.23,0.18-0.42c0.06-0.1,0.25-0.17,0.52-0.2c0.68,0.06,1.38,0.31,2.09,0.77
		c0.13,0.13,0.35,0.37,0.66,0.73c0.4,0.59,0.63,0.99,0.75,1.25h-0.45c-0.74,0-1.51-0.13-2.3-0.37c-0.9-0.28-1.13-0.47-1.13-0.47
		C207.4,172.14,207.29,171.83,207.29,171.51z M211.56,163.58c-0.16-0.07-0.25-0.13-0.3-0.17c0.1-0.05,0.29-0.11,0.66-0.11
		c0.66,0,0.96,0.13,1.09,0.22c0.31,0.3,0.57,0.54,0.81,0.73c-0.26-0.06-0.52-0.12-0.79-0.18
		C212.44,163.93,211.95,163.77,211.56,163.58z M216.08,172.3c-0.09,0.14-0.22,0.28-0.35,0.4c-0.06-0.2-0.13-0.42-0.21-0.65
		c-0.23-0.66-0.54-1.34-0.92-2.02c-0.3-0.53-0.64-1.01-1.01-1.42c0.06,0.01,0.11,0.03,0.16,0.04c0.36,0.09,0.7,0.24,1.06,0.46
		c0.37,0.21,0.7,0.54,1.01,1c0.28,0.43,0.46,0.81,0.52,1.15C216.31,171.84,216.18,172.14,216.08,172.3z"/>
	<path class="st1" d="M218.79,150.15c0,1.21-0.75,2.06-2.07,2.33l-0.2,0.02c-1.25,0-2.06-0.8-2.06-2.02c0-0.12,0-0.42-0.65-0.78
		c-0.63-0.35-1.19-0.52-1.65-0.52c-1.19,0-1.77,0.43-1.98,1.47c0.02,1.15,0.51,2.14,1.49,3.02c0.44,0.41,1.16,0.86,2.14,1.34
		l1.57,0.78c0.4,0.19,1.1,0.69,1.1,1.88c0,1.22-0.76,2.05-2.08,2.29l-0.27,0.04l-0.93-0.34l-1.97-1c-2.06-1.11-3.53-2.48-4.41-4.08
		c-0.65-1.18-0.98-2.64-0.98-4.34l0.02-0.16c0.26-1.58,0.99-2.86,2.17-3.83c1.17-0.95,2.56-1.44,4.13-1.44
		c1.57,0,3.01,0.47,4.27,1.38c1.3,0.94,2.1,2.22,2.35,3.8L218.79,150.15z"/>
	<path class="st1" d="M230.25,171.33c-0.24-0.52-0.55-0.98-0.93-1.36c-0.39-0.39-0.85-0.7-1.37-0.93c-1.07-0.47-2.36-0.47-3.43,0
		c-0.52,0.23-0.98,0.54-1.36,0.93c-0.39,0.38-0.7,0.84-0.93,1.36c-0.24,0.53-0.36,1.11-0.36,1.72c0,0.6,0.12,1.18,0.36,1.71
		c0.23,0.52,0.54,0.98,0.93,1.37c0.38,0.38,0.84,0.7,1.36,0.93c0.54,0.23,1.11,0.35,1.72,0.35c0.6,0,1.17-0.12,1.71-0.35
		c0.52-0.23,0.98-0.55,1.37-0.93c0.38-0.39,0.69-0.85,0.93-1.37c0.23-0.53,0.35-1.11,0.35-1.71
		C230.6,172.44,230.48,171.87,230.25,171.33z M226.52,173.33c-0.14,0.14-0.43,0.14-0.57,0c-0.07-0.07-0.11-0.14-0.11-0.28
		c0-0.15,0.04-0.22,0.11-0.29c0.07-0.07,0.14-0.11,0.29-0.11c0.14,0,0.21,0.04,0.28,0.11c0.07,0.07,0.11,0.14,0.11,0.29
		C226.63,173.19,226.59,173.26,226.52,173.33z"/>
	<path class="st1" d="M230.25,161.33c-0.24-0.52-0.55-0.98-0.93-1.36c-0.39-0.39-0.85-0.7-1.37-0.93c-1.07-0.47-2.36-0.47-3.43,0
		c-0.52,0.23-0.98,0.54-1.36,0.93c-0.39,0.39-0.7,0.85-0.93,1.36c-0.24,0.54-0.36,1.11-0.36,1.72s0.12,1.18,0.36,1.71
		c0.23,0.52,0.54,0.98,0.93,1.37c0.39,0.39,0.85,0.7,1.36,0.93c0.54,0.23,1.11,0.35,1.72,0.35c0.6,0,1.18-0.12,1.71-0.35
		c0.52-0.23,0.98-0.54,1.37-0.93c0.38-0.39,0.69-0.85,0.93-1.37c0.23-0.53,0.35-1.11,0.35-1.71S230.48,161.87,230.25,161.33z
		 M226.52,163.33c-0.14,0.14-0.43,0.14-0.57,0c-0.07-0.06-0.11-0.14-0.11-0.28c0-0.15,0.04-0.22,0.11-0.29
		c0.07-0.06,0.14-0.11,0.29-0.11c0.14,0,0.21,0.05,0.28,0.11c0.07,0.07,0.11,0.14,0.11,0.29
		C226.63,163.19,226.59,163.26,226.52,163.33z"/>
	<path class="st1" d="M267.94,162.83c-0.89-1.59-2.12-2.85-3.67-3.76l-0.95-0.3l-0.22,0.04c-1.28,0.2-2.03,1.07-1.99,2.41
		c0.12,0.96,0.63,1.43,0.96,1.6c1.87,1.24,2.78,2.89,2.78,5.04c0,0.01,0,0.02,0,0.02c-1.34-1.02-3.02-1.53-5.03-1.53
		c-1.95,0-3.59,0.54-4.91,1.62l-0.03-0.19c0.01-0.93,0.27-1.87,0.76-2.79c0.49-0.94,1.15-1.66,1.93-2.16
		c0.69-0.43,1.07-1.07,1.07-1.8v-0.1c-0.14-1.34-0.97-2.13-2.23-2.13l-1.01,0.21l-0.15,0.1c-3.17,2.12-4.78,5.07-4.78,8.75
		c0,2.58,0.92,4.86,2.74,6.77c1.84,1.92,4.06,2.89,6.61,2.89c2.61,0,4.86-0.97,6.7-2.89c1.82-1.91,2.74-4.19,2.74-6.77
		C269.26,166.11,268.82,164.42,267.94,162.83z M258.03,171.19c0.5-0.31,1.08-0.46,1.79-0.46c1.2,0,2.18,0.44,2.99,1.33
		c-0.78,0.7-1.77,1.05-2.99,1.05c-1.11,0-2.03-0.33-2.82-1C257.33,171.72,257.67,171.41,258.03,171.19z"/>
	<path class="st1" d="M249.49,170.11l-0.21-0.22c-1.67-1.73-3.58-2.6-5.7-2.6l-2.26,0.38c-1.95,0.54-3.44,1.53-4.45,2.97
		c-0.44-0.69-0.65-1.51-0.65-2.47c0-1.47,0.48-2.65,1.47-3.6c1.01-0.96,2.23-1.43,3.72-1.43c1.03,0,1.85,0.22,2.45,0.65
		c0.05,0.04,0.37,0.29,1.3,1.46c0.38,0.76,1.08,1.2,1.95,1.2c1.42,0,2.3-0.83,2.3-2.15l-0.02-0.19c-0.1-0.52-0.34-1.05-0.73-1.58
		c-0.82-1.05-1.58-1.8-2.36-2.32c-1.41-0.93-3.06-1.4-4.89-1.4c-2.58,0-4.84,0.89-6.72,2.65c-1.89,1.78-2.85,3.99-2.85,6.59
		c0,2.58,0.88,4.82,2.62,6.67c1.75,1.86,3.95,2.8,6.54,2.8c1.38,0,2.73-0.29,4-0.86c1.24-0.57,2.28-1.26,3.07-2.05l0.94-1.27
		l0.83-1.37L249.49,170.11z M244.52,171.88c-0.96,0.83-2.12,1.23-3.52,1.23c-0.15,0-0.29-0.01-0.43-0.02
		c0.08-0.09,0.16-0.17,0.25-0.25c0.82-0.69,1.73-1.03,2.78-1.03C243.98,171.81,244.28,171.84,244.52,171.88z"/>
	<path class="st1" d="M265.29,177.03c-1.47-1.48-3.26-2.24-5.31-2.24c-2.15,0-3.96,0.75-5.41,2.24c-0.36,0.38-0.69,0.76-0.99,1.17
		l-1.43,2.11l-0.06,0.08c-0.05,0.05-0.2,0.16-0.54,0.32c-0.49,0.23-0.73,0.28-0.82,0.3c-0.72-0.13-1.51-0.65-2.35-1.55l-1.43-1.53
		l-0.75,5.25l0.38,0.35c0.68,0.65,1.27,1.09,1.82,1.35c1.66,0.74,3.21,0.62,4.43,0.21c0.35,0.96,0.95,1.87,1.79,2.72
		c1.47,1.48,3.27,2.23,5.36,2.23c2.1,0,3.9-0.74,5.34-2.21c1.45-1.47,2.18-3.28,2.18-5.39C267.5,180.34,266.76,178.52,265.29,177.03
		z M259.98,185.73c-0.9,0-1.64-0.32-2.26-0.96c-0.63-0.66-0.93-1.42-0.93-2.33c0-0.98,0.29-1.76,0.88-2.37
		c0.59-0.6,1.34-0.9,2.31-0.9c0.89,0,1.62,0.31,2.22,0.93c0.62,0.63,0.92,1.4,0.92,2.34c0,0.95-0.3,1.72-0.92,2.35
		C261.59,185.42,260.87,185.73,259.98,185.73z"/>
	<path class="st1" d="M278.36,161.33c-0.23-0.52-0.54-0.98-0.92-1.36c-0.39-0.39-0.85-0.7-1.37-0.93c-1.07-0.47-2.36-0.47-3.43,0
		c-0.52,0.23-0.98,0.54-1.36,0.93c-0.39,0.39-0.7,0.85-0.93,1.36c-0.24,0.54-0.36,1.11-0.36,1.72s0.12,1.18,0.36,1.71
		c0.23,0.52,0.54,0.98,0.93,1.37c0.39,0.39,0.84,0.7,1.36,0.93c0.54,0.23,1.11,0.35,1.72,0.35c0.6,0,1.17-0.12,1.71-0.35
		c0.52-0.23,0.98-0.54,1.36-0.93c0.39-0.39,0.7-0.85,0.94-1.37c0.23-0.53,0.35-1.11,0.35-1.71S278.6,161.87,278.36,161.33z
		 M274.64,163.33c-0.14,0.14-0.43,0.14-0.57,0c-0.07-0.06-0.11-0.14-0.11-0.28c0-0.15,0.04-0.22,0.11-0.29
		c0.07-0.06,0.14-0.11,0.29-0.11c0.14,0,0.21,0.05,0.28,0.11c0.07,0.07,0.11,0.14,0.11,0.29
		C274.75,163.19,274.71,163.26,274.64,163.33z"/>
	<path class="st1" d="M278.36,171.33c-0.23-0.52-0.54-0.98-0.92-1.36c-0.39-0.39-0.85-0.7-1.37-0.93c-1.07-0.47-2.36-0.47-3.43,0
		c-0.52,0.23-0.98,0.54-1.36,0.93c-0.39,0.38-0.7,0.84-0.93,1.36c-0.24,0.53-0.36,1.11-0.36,1.72c0,0.6,0.12,1.18,0.36,1.71
		c0.23,0.52,0.54,0.98,0.93,1.37c0.38,0.38,0.84,0.7,1.36,0.93c0.54,0.23,1.11,0.35,1.72,0.35c0.6,0,1.17-0.12,1.71-0.35
		c0.52-0.23,0.98-0.55,1.36-0.93c0.39-0.39,0.7-0.85,0.94-1.37c0.23-0.53,0.35-1.11,0.35-1.71
		C278.72,172.44,278.6,171.87,278.36,171.33z M274.64,173.33c-0.14,0.14-0.43,0.14-0.57,0c-0.07-0.07-0.11-0.14-0.11-0.28
		c0-0.15,0.04-0.22,0.11-0.29c0.07-0.07,0.14-0.11,0.29-0.11c0.14,0,0.21,0.04,0.28,0.11c0.07,0.07,0.11,0.14,0.11,0.29
		C274.75,173.19,274.71,173.26,274.64,173.33z"/>
	<path class="st1" d="M330.3,150.15c0,1.21-0.76,2.06-2.08,2.33l-0.19,0.02c-1.26,0-2.07-0.8-2.07-2.02c0-0.12,0-0.42-0.65-0.78
		c-0.63-0.35-1.18-0.52-1.65-0.52c-1.18,0-1.77,0.43-1.98,1.47c0.03,1.15,0.51,2.14,1.49,3.02c0.45,0.41,1.16,0.86,2.14,1.34
		l1.57,0.78c0.4,0.19,1.1,0.69,1.1,1.88c0,1.22-0.76,2.05-2.08,2.29l-0.26,0.04l-0.94-0.34l-1.97-1c-2.05-1.11-3.53-2.48-4.4-4.08
		c-0.65-1.18-0.98-2.64-0.98-4.34l0.01-0.16c0.26-1.58,0.99-2.86,2.17-3.83c1.17-0.95,2.56-1.44,4.13-1.44
		c1.58,0,3.01,0.47,4.27,1.38c1.31,0.94,2.1,2.22,2.36,3.8L330.3,150.15z"/>
	<path class="st1" d="M332.61,168.16c0,2.51-0.93,4.72-2.79,6.58c-1.85,1.86-4.05,2.8-6.54,2.8c-2.49,0-4.72-0.94-6.64-2.79
		c-0.2-0.2-0.37-0.39-0.52-0.57c-0.6,0.75-1.36,1.4-2.26,1.96c-1.42,0.86-3.04,1.3-4.83,1.3c-2.61,0-4.85-0.95-6.66-2.83
		c-1.8-1.88-2.72-4.12-2.72-6.67c0-1.65,0.41-3.27,1.23-4.82c0.81-1.56,1.98-2.86,3.46-3.87l0.15-0.1l1.05-0.23
		c0.6,0,1.15,0.23,1.59,0.67c0.43,0.44,0.66,0.98,0.66,1.59c0,0.76-0.38,1.4-1.09,1.8c-0.78,0.5-1.41,1.22-1.88,2.17
		c-0.48,0.95-0.72,1.89-0.72,2.79c0,1.43,0.47,2.62,1.45,3.65c0.96,1.01,2.1,1.5,3.48,1.5c1.35,0,2.48-0.47,3.47-1.46
		c0.99-0.98,1.47-2.1,1.47-3.42v-0.27c0-1.19-0.24-2.19-0.7-3c-0.35-0.65-0.98-1.34-1.86-2.07l-0.14-0.15
		c-0.47-0.57-0.68-1.06-0.68-1.54c0-0.57,0.19-1.09,0.56-1.53c0.41-0.47,0.97-0.73,1.61-0.73l0.28,0.04l0.77,0.26
		c1.5,0.9,2.64,2.06,3.38,3.46c0.74,1.39,1.11,3.15,1.11,5.26c0,0.65,0.13,1.32,0.38,2.01c0.24,0.65,0.59,1.18,1.07,1.61
		c0.52,0.56,1.06,0.94,1.68,1.19c0.62,0.26,1.25,0.39,1.85,0.39c1.33,0,2.47-0.49,3.49-1.5c0.45-0.43,0.79-0.93,1.04-1.55
		c0.25-0.63,0.38-1.28,0.38-1.93c0-1.43-0.46-2.55-1.4-3.43c-0.52-0.56-1.07-0.93-1.75-1.17c-0.7-0.25-1.44-0.38-2.22-0.38
		l-0.81,0.09c-0.73,0-1.32-0.19-1.76-0.56c-0.48-0.41-0.73-0.96-0.73-1.58c0-1.39,0.74-1.84,1.19-1.99
		c0.38-0.13,0.74-0.22,1.07-0.27c0.35-0.05,0.59-0.07,0.72-0.07c3.01,0,5.47,0.94,7.32,2.79
		C331.67,163.44,332.61,165.65,332.61,168.16z"/>
	<path class="st1" d="M291.61,176.92v10.74c0,1.36-0.87,2.21-2.26,2.21h-3.84c-1.34,0-2.17-0.85-2.17-2.21
		c0-1.12,0.74-1.92,1.99-2.13l0.17-0.01h1.74v-8.6c0.02-1.38,0.83-2.22,2.11-2.22C290.74,174.7,291.61,175.55,291.61,176.92z"/>
	<path class="st1" d="M299.49,185.6h-1.04v-16.71c0-1.4-0.2-2.71-0.59-3.87c-0.44-1.41-1.16-2.58-2.11-3.44
		c-1.83-1.83-4.06-2.75-6.62-2.75c-2.53,0-4.72,0.9-6.51,2.67c-1.8,1.79-2.71,4.03-2.71,6.67c0,2.62,0.89,4.87,2.66,6.69
		c1.78,1.84,4.03,2.73,6.58,2.69c0.94-0.01,2.52-0.55,2.52-3.93c0-2.08-0.77-3.98-2.3-5.65c-1.08-1.16-2.66-1.84-4.71-2.05
		c0.29-0.52,0.72-1.01,1.32-1.47c1.02-0.81,2.05-1.2,3.15-1.2c1.42,0,2.57,0.48,3.51,1.45c0.95,0.98,1.41,2.35,1.41,4.19v18.95
		c0.09,1.3,0.88,2.12,2.17,2.19h3.34c1.37-0.09,2.19-0.94,2.18-2.37C301.62,186.37,300.78,185.6,299.49,185.6z M284.63,170.28
		c1.3,0.28,2.14,1.01,2.58,2.23c0.05,0.14,0.09,0.27,0.12,0.42l-0.03-0.03l-0.17-0.09c-1.13-0.49-1.93-1.28-2.46-2.45
		C284.65,170.33,284.64,170.31,284.63,170.28z"/>
</g>
</svg>
