<?xml version="1.0" encoding="utf-8"?>
<!-- Generator: Adobe Illustrator 26.0.2, SVG Export Plug-In . SVG Version: 6.00 Build 0)  -->
<svg version="1.1" xmlns="http://www.w3.org/2000/svg" xmlns:xlink="http://www.w3.org/1999/xlink" x="0px" y="0px"
	 viewBox="0 0 1080 1512" style="enable-background:new 0 0 1080 1512;" xml:space="preserve">
<style type="text/css">
	.st0{fill:url(#SVGID_1_);}
	.st1{fill:#A3B43A;}
	.st2{fill:url(#SVGID_00000094593956119571900100000004742278598642890638_);}
	.st3{fill:#CCAD66;}
	.st4{fill:url(#SVGID_00000103987908548911143630000008334978948599492239_);}
	.st5{fill:url(#SVGID_00000104676262024144791060000014676944211156465314_);}
	.st6{fill:url(#SVGID_00000090264305090490668200000001756455891358191551_);}
	.st7{fill:url(#SVGID_00000103956830836166252900000009883533467714961035_);}
	.st8{fill:url(#SVGID_00000181770102516607787130000006589553498395533969_);}
	.st9{fill:url(#SVGID_00000139992594710234254220000007342688513648995996_);}
	.st10{fill:url(#SVGID_00000155122691422080282210000015953403217883483534_);}
	.st11{fill:url(#SVGID_00000094608551485137846760000004524466326265891735_);}
	.st12{fill:url(#SVGID_00000047741301737801849700000007441698296979168172_);}
	.st13{fill:url(#SVGID_00000169522921567641200700000017968010198531693451_);}
	.st14{fill:url(#SVGID_00000113331206205094517400000002633376290440343994_);}
	.st15{fill:url(#SVGID_00000060022412171349027890000015680093622754461371_);}
	.st16{fill:url(#SVGID_00000049923286753098803190000000127157477778522552_);}
	.st17{fill:url(#SVGID_00000134935346844112585440000010191206221869429664_);}
	.st18{fill:url(#SVGID_00000052086919827360934790000009185338595060747191_);}
	.st19{fill:url(#SVGID_00000082333415164626463620000011607989202656839612_);}
	.st20{fill:url(#SVGID_00000105416873550091008550000015644540624529249695_);}
	.st21{fill:url(#SVGID_00000051354105417593017840000003756144804098041521_);}
	.st22{fill:url(#SVGID_00000007397117301812087710000016030853719885656736_);}
	.st23{fill:url(#SVGID_00000096770678675838435700000002858435637537407371_);}
	.st24{fill:url(#SVGID_00000113349366192857421180000018274283457543826876_);}
	.st25{fill:url(#SVGID_00000139992253478845667310000002386894568427036315_);}
	.st26{fill:url(#SVGID_00000003083842425086397120000003378487539001932464_);}
	.st27{fill:url(#SVGID_00000016779376244638770980000006836109822986130827_);}
	.st28{fill:url(#SVGID_00000108270235863525375880000011411811016235955390_);}
	.st29{fill:url(#SVGID_00000162342001605231911110000002731442915851917190_);}
	.st30{fill:url(#SVGID_00000006680184609538450350000001912996469740224179_);}
	.st31{fill:url(#SVGID_00000044899248551988064180000002561137559467520959_);}
	.st32{fill:url(#SVGID_00000133490697081559166840000015816941692444095674_);}
	.st33{fill:url(#SVGID_00000021805005330387828440000008856184851583538100_);}
	.st34{fill:url(#SVGID_00000148635514200867296400000005085894077837585069_);}
	.st35{fill:url(#SVGID_00000116196238603748724920000007249101743076496788_);}
	.st36{fill:url(#SVGID_00000103948236951949065600000014816869868309493427_);}
	.st37{fill:url(#SVGID_00000153671700834016722070000010541505866100719787_);}
	.st38{fill:url(#SVGID_00000113339234908793866750000011919325649072526990_);}
	.st39{fill:url(#SVGID_00000093169329025254396700000015089496418066781323_);}
	.st40{fill:url(#SVGID_00000031170471900577622620000012160236823929810854_);}
	.st41{fill:url(#SVGID_00000127020668526012232570000001671932550246820784_);}
	.st42{fill:url(#SVGID_00000162317953309949698380000017346524028659062917_);}
	.st43{fill:url(#SVGID_00000096760977057284684640000002793909090735329948_);}
	.st44{fill:url(#SVGID_00000091000505415204291170000009206224561118731965_);}
	.st45{fill:url(#SVGID_00000073000326370615289130000015419962163264315797_);}
	.st46{fill:url(#SVGID_00000004532055961395053080000009969012542222394798_);}
	.st47{fill:url(#SVGID_00000152953153151944832950000013368582098671419580_);}
	.st48{fill:url(#SVGID_00000021106235194641074250000018421707581380392364_);}
	.st49{fill:url(#SVGID_00000180363378547802681980000002696380743556001155_);}
	.st50{fill:url(#SVGID_00000030486300124143740140000007779253578017410988_);}
	.st51{display:none;fill:none;stroke:#FFFFFF;stroke-miterlimit:10;}
</style>
<g id="Layer_1">
</g>
<g id="Layer_6">
	<g>
		<g>
			<linearGradient id="SVGID_1_" gradientUnits="userSpaceOnUse" x1="177.9211" y1="1230.3585" x2="731.1806" y2="1160.5856">
				<stop  offset="0.1468" style="stop-color:#B0D235"/>
				<stop  offset="1" style="stop-color:#26562A"/>
			</linearGradient>
			<path class="st0" d="M739.89,1410.39c-4.13-6.7-8.47-13.54-12.79-20.27c-4.34-6.75-8.72-13.49-13.13-20.2
				c-8.84-13.42-17.82-26.76-26.94-40c-18.25-26.48-37.03-52.6-56.46-78.21c-19.42-25.62-39.5-50.72-60.47-75.04
				c-20.99-24.28-42.87-47.8-66.26-69.64c-5.88-5.41-11.79-10.8-17.89-15.95c-3.01-2.63-6.12-5.11-9.19-7.67
				c-3.13-2.46-6.21-5-9.4-7.37c-6.31-4.86-12.8-9.46-19.44-13.79c-3.3-2.2-6.7-4.24-10.08-6.29c-3.43-1.95-6.86-3.93-10.38-5.71
				c-28.54-14.35-58.52-26.29-89.21-35.83c-30.71-9.55-62.14-16.91-93.95-22.17c-15.91-2.6-31.9-4.77-47.97-6.3
				c-16.06-1.54-32.19-2.63-48.34-2.7c16.15-0.45,32.33,0.12,48.47,1.14c16.14,1.01,32.25,2.67,48.3,4.76
				c32.1,4.25,63.95,10.63,95.25,19.27c31.31,8.65,61.95,19.7,91.6,33.42c3.76,1.74,7.39,3.69,11.04,5.61
				c3.59,2.02,7.19,4.03,10.68,6.2c7.02,4.27,13.87,8.8,20.52,13.58c3.36,2.34,6.61,4.83,9.9,7.26c3.22,2.51,6.5,4.97,9.66,7.55
				c6.41,5.07,12.61,10.38,18.79,15.7c24.56,21.49,47.51,44.63,69.56,68.52c22.01,23.93,43.12,48.65,63.56,73.87
				c20.45,25.22,40.24,50.96,59.51,77.08c9.64,13.06,19.13,26.23,28.5,39.49c4.68,6.64,9.33,13.3,13.94,19.99
				c4.62,6.72,9.16,13.38,13.73,20.29L739.89,1410.39z"/>
		</g>
		<g>
			<g>
				<path class="st1" d="M721.22,887.66c-18.84,40.27-28.71,84.78-30.08,129.14c-0.61,21.85,0.22,44.9,1.44,66.75
					c2.69,44.45,8.09,88.74,15.77,132.6c7.66,43.24,18.24,88.17,23.17,131.82c2.77,22.16,5.13,44.37,6.47,66.66
					c0,0-0.5,0.04-0.5,0.04c-2.78-22.12-5.9-44.2-9.42-66.21c-4.95-31.73-11.93-66.89-18.7-98.48
					c-10.58-54.85-17.14-110.47-20.03-166.25c-2.07-44.47-2.5-89.97,8.9-133.32c5.4-21.67,12.58-42.96,22.54-62.98
					C720.77,887.43,721.22,887.66,721.22,887.66L721.22,887.66z"/>
			</g>
			<g>
				
					<linearGradient id="SVGID_00000070111079025490146680000016471459554122729091_" gradientUnits="userSpaceOnUse" x1="674.6128" y1="1205.21" x2="710.7261" y2="1184.3599" gradientTransform="matrix(0.9786 0.2059 -0.2059 0.9786 272.8922 -238.0083)">
					<stop  offset="0.3781" style="stop-color:#C29C21"/>
					<stop  offset="0.822" style="stop-color:#FFE6B0"/>
				</linearGradient>
				<path style="fill:url(#SVGID_00000070111079025490146680000016471459554122729091_);" d="M709.76,1078.48
					c-5.75,22.2-15.39,30.55-15.39,30.55s0.01-0.42,0.04-1.22c2.97-8.04,7.58-21.26,10.51-32.86c0.14-0.55,0.27-1.08,0.4-1.62
					c3.38-14,5.19-23.75,9.85-34.8c-0.08,1.63-0.2,3.9-0.4,6.63C714.14,1053.78,712.75,1066.95,709.76,1078.48z"/>
				<path class="st3" d="M715.18,1038.53c-4.66,11.05-6.47,20.8-9.85,34.8c-0.13,0.54-0.26,1.08-0.4,1.62
					c-2.93,11.6-7.54,24.82-10.51,32.86c0.01-0.35,0.03-0.78,0.06-1.26c0.33-6.51,1.69-24.78,6.87-42.36
					c6.44-21.88,13.94-28.43,13.94-28.43S715.26,1036.76,715.18,1038.53z"/>
			</g>
			<g>
				
					<linearGradient id="SVGID_00000131337110501440692940000016239076207899329195_" gradientUnits="userSpaceOnUse" x1="685.3747" y1="1240.0133" x2="721.488" y2="1219.1633" gradientTransform="matrix(0.9786 0.2059 -0.2059 0.9786 272.8922 -238.0083)">
					<stop  offset="0.3781" style="stop-color:#C29C21"/>
					<stop  offset="0.822" style="stop-color:#FFE6B0"/>
				</linearGradient>
				<path style="fill:url(#SVGID_00000131337110501440692940000016239076207899329195_);" d="M713.13,1114.75
					c-5.75,22.2-15.39,30.55-15.39,30.55s0.01-0.42,0.04-1.22c2.97-8.04,7.58-21.26,10.51-32.86c0.14-0.55,0.27-1.08,0.4-1.62
					c3.38-14,5.19-23.75,9.85-34.8c-0.08,1.63-0.2,3.9-0.4,6.63C717.51,1090.06,716.12,1103.22,713.13,1114.75z"/>
				<path class="st3" d="M718.54,1074.8c-4.66,11.05-6.47,20.8-9.85,34.8c-0.13,0.54-0.26,1.08-0.4,1.62
					c-2.93,11.6-7.54,24.82-10.51,32.86c0.01-0.35,0.03-0.78,0.06-1.26c0.33-6.51,1.69-24.78,6.87-42.36
					c6.44-21.88,13.94-28.43,13.94-28.43S718.62,1073.04,718.54,1074.8z"/>
			</g>
			<g>
				
					<linearGradient id="SVGID_00000000215666980601557210000005080115903349366960_" gradientUnits="userSpaceOnUse" x1="696.5599" y1="1267.2939" x2="732.6732" y2="1246.444" gradientTransform="matrix(0.9786 0.2059 -0.2059 0.9786 272.8922 -238.0083)">
					<stop  offset="0.3781" style="stop-color:#C29C21"/>
					<stop  offset="0.822" style="stop-color:#FFE6B0"/>
				</linearGradient>
				<path style="fill:url(#SVGID_00000000215666980601557210000005080115903349366960_);" d="M718.46,1143.75
					c-5.75,22.2-15.39,30.55-15.39,30.55s0.01-0.42,0.04-1.22c2.97-8.04,7.58-21.26,10.51-32.86c0.14-0.55,0.27-1.08,0.4-1.62
					c3.38-14,5.19-23.75,9.85-34.8c-0.08,1.63-0.2,3.9-0.4,6.63C722.84,1119.06,721.45,1132.22,718.46,1143.75z"/>
				<path class="st3" d="M723.87,1103.8c-4.66,11.05-6.47,20.8-9.85,34.8c-0.13,0.54-0.26,1.08-0.4,1.62
					c-2.93,11.6-7.54,24.82-10.51,32.86c0.01-0.35,0.03-0.78,0.06-1.26c0.33-6.51,1.69-24.78,6.87-42.36
					c6.44-21.88,13.94-28.43,13.94-28.43S723.95,1102.04,723.87,1103.8z"/>
			</g>
			<g>
				
					<linearGradient id="SVGID_00000136393940078659147860000007986753838041385879_" gradientUnits="userSpaceOnUse" x1="707.681" y1="1292.0769" x2="743.7944" y2="1271.2268" gradientTransform="matrix(0.9786 0.2059 -0.2059 0.9786 272.8922 -238.0083)">
					<stop  offset="0.3781" style="stop-color:#C29C21"/>
					<stop  offset="0.822" style="stop-color:#FFE6B0"/>
				</linearGradient>
				<path style="fill:url(#SVGID_00000136393940078659147860000007986753838041385879_);" d="M724.24,1170.3
					c-5.75,22.2-15.39,30.55-15.39,30.55s0.01-0.42,0.04-1.22c2.97-8.04,7.58-21.26,10.51-32.86c0.14-0.55,0.27-1.08,0.4-1.62
					c3.38-14,5.19-23.75,9.85-34.8c-0.08,1.63-0.2,3.9-0.4,6.63C728.62,1145.6,727.23,1158.76,724.24,1170.3z"/>
				<path class="st3" d="M729.65,1130.34c-4.66,11.05-6.47,20.8-9.85,34.8c-0.13,0.54-0.26,1.08-0.4,1.62
					c-2.93,11.6-7.54,24.82-10.51,32.86c0.01-0.35,0.03-0.78,0.06-1.26c0.33-6.51,1.69-24.78,6.87-42.36
					c6.44-21.88,13.94-28.43,13.94-28.43S729.74,1128.58,729.65,1130.34z"/>
			</g>
			<g>
				
					<linearGradient id="SVGID_00000041994832843790502120000003126636143882828711_" gradientUnits="userSpaceOnUse" x1="664.054" y1="1167.748" x2="699.574" y2="1147.2405" gradientTransform="matrix(0.9786 0.2059 -0.2059 0.9786 272.8922 -238.0083)">
					<stop  offset="0.3781" style="stop-color:#C29C21"/>
					<stop  offset="0.822" style="stop-color:#FFE6B0"/>
				</linearGradient>
				<path style="fill:url(#SVGID_00000041994832843790502120000003126636143882828711_);" d="M706.73,1039.68
					c-5.66,21.84-15.14,30.04-15.14,30.04s0.01-0.41,0.04-1.2c2.92-7.91,7.46-20.91,10.34-32.32c0.13-0.54,0.26-1.07,0.39-1.6
					c3.32-13.77,5.1-23.36,9.69-34.23c-0.07,1.6-0.19,3.84-0.39,6.52C711.04,1015.38,709.67,1028.34,706.73,1039.68z"/>
				<path class="st3" d="M712.06,1000.38c-4.59,10.87-6.37,20.46-9.69,34.23c-0.13,0.53-0.26,1.06-0.39,1.6
					c-2.88,11.41-7.42,24.41-10.34,32.32c0.01-0.34,0.03-0.76,0.06-1.24c0.33-6.4,1.66-24.37,6.76-41.67
					c6.33-21.52,13.71-27.96,13.71-27.96S712.14,998.65,712.06,1000.38z"/>
			</g>
			<g>
				
					<linearGradient id="SVGID_00000111153246450729725640000008384037105642996884_" gradientUnits="userSpaceOnUse" x1="674.9701" y1="1130.2683" x2="708.9679" y2="1110.6396" gradientTransform="matrix(0.9682 0.2502 -0.2502 0.9682 314.1184 -268.326)">
					<stop  offset="0.3781" style="stop-color:#C29C21"/>
					<stop  offset="0.822" style="stop-color:#FFE6B0"/>
				</linearGradient>
				<path style="fill:url(#SVGID_00000111153246450729725640000008384037105642996884_);" d="M708.5,994.69
					c-6.17,21.22-15.87,28.52-15.87,28.52s0.02-0.41,0.07-1.19c3.11-7.61,7.96-20.13,11.11-31.23c0.15-0.52,0.29-1.04,0.43-1.55
					c3.65-13.4,5.65-22.79,10.5-33.19c-0.11,1.59-0.28,3.8-0.54,6.45C713.37,970.91,711.71,983.67,708.5,994.69z"/>
				<path class="st3" d="M714.74,956.06c-4.85,10.4-6.85,19.78-10.5,33.19c-0.14,0.52-0.28,1.03-0.43,1.55
					c-3.15,11.1-8,23.62-11.11,31.23c0.02-0.34,0.05-0.76,0.09-1.23c0.48-6.34,2.23-24.11,7.73-40.86
					c6.84-20.84,14.39-26.58,14.39-26.58S714.86,954.35,714.74,956.06z"/>
			</g>
			<g>
				
					<linearGradient id="SVGID_00000176018507152339091410000013089463188787788683_" gradientUnits="userSpaceOnUse" x1="690.3507" y1="1086.6576" x2="722.7026" y2="1067.9791" gradientTransform="matrix(0.954 0.2999 -0.2999 0.954 359.2194 -301.5441)">
					<stop  offset="0.3781" style="stop-color:#C29C21"/>
					<stop  offset="0.822" style="stop-color:#FFE6B0"/>
				</linearGradient>
				<path style="fill:url(#SVGID_00000176018507152339091410000013089463188787788683_);" d="M714.81,943.6
					c-6.74,20.47-16.65,26.73-16.65,26.73s0.03-0.41,0.1-1.17c3.31-7.25,8.5-19.2,11.95-29.91c0.16-0.5,0.32-1,0.47-1.5
					c4.01-12.95,6.26-22.08,11.39-31.92c-0.15,1.57-0.38,3.75-0.71,6.36C720.32,920.45,718.32,932.97,714.81,943.6z"/>
				<path class="st3" d="M722.07,905.83c-5.13,9.84-7.39,18.97-11.39,31.92c-0.16,0.5-0.31,1-0.47,1.5
					c-3.45,10.71-8.64,22.66-11.95,29.91c0.03-0.34,0.07-0.75,0.12-1.21c0.64-6.26,2.86-23.75,8.81-39.83
					c7.4-20.02,15.12-24.95,15.12-24.95S722.24,904.13,722.07,905.83z"/>
			</g>
			<g>
				
					<linearGradient id="SVGID_00000118393469477815530630000004864908441339235209_" gradientUnits="userSpaceOnUse" x1="683.3876" y1="1029.4335" x2="715.7395" y2="1010.7551" gradientTransform="matrix(0.954 0.2999 -0.2999 0.954 359.2194 -301.5441)">
					<stop  offset="0.3781" style="stop-color:#C29C21"/>
					<stop  offset="0.822" style="stop-color:#FFE6B0"/>
				</linearGradient>
				<path style="fill:url(#SVGID_00000118393469477815530630000004864908441339235209_);" d="M725.33,886.92
					c-6.74,20.47-16.65,26.73-16.65,26.73s0.03-0.41,0.1-1.17c3.31-7.25,8.5-19.2,11.95-29.91c0.16-0.5,0.32-1,0.47-1.5
					c4.01-12.95,6.26-22.08,11.39-31.92c-0.15,1.57-0.38,3.75-0.71,6.36C730.84,863.77,728.84,876.29,725.33,886.92z"/>
				<path class="st3" d="M732.59,849.15c-5.13,9.84-7.39,18.97-11.39,31.92c-0.16,0.5-0.31,1-0.47,1.5
					c-3.45,10.71-8.64,22.66-11.95,29.91c0.03-0.34,0.07-0.75,0.12-1.21c0.64-6.26,2.86-23.75,8.81-39.83
					c7.4-20.02,15.12-24.95,15.12-24.95S732.76,847.45,732.59,849.15z"/>
			</g>
			<g>
				
					<linearGradient id="SVGID_00000006700651796552321430000012563538155127078813_" gradientUnits="userSpaceOnUse" x1="513.3113" y1="1004.5317" x2="559.286" y2="977.9882" gradientTransform="matrix(0.9963 -0.0856 0.0856 0.9963 78.0851 -20.6893)">
					<stop  offset="0.3781" style="stop-color:#C29C21"/>
					<stop  offset="0.822" style="stop-color:#FFE6B0"/>
				</linearGradient>
				<path style="fill:url(#SVGID_00000006700651796552321430000012563538155127078813_);" d="M702.5,922.74
					c-2.11,24.68-9.77,38.21-9.77,38.21s-0.05-0.41-0.13-1.2c1.57-9.44,3.93-24.81,4.96-37.66c0.05-0.6,0.09-1.2,0.13-1.79
					c1.1-15.42,1.37-25.86,4.08-39.16c0.16,1.61,0.38,3.88,0.58,6.62C702.99,896.43,703.6,909.92,702.5,922.74z"/>
				<path class="st3" d="M701.76,881.13c-2.7,13.31-2.97,23.74-4.08,39.16c-0.04,0.59-0.09,1.19-0.13,1.79
					c-1.03,12.85-3.38,28.22-4.96,37.66c-0.04-0.35-0.08-0.77-0.13-1.25c-0.62-6.47-1.99-24.86,0.25-44.76
					c2.79-24.76,8.75-35.34,8.75-35.34S701.59,879.38,701.76,881.13z"/>
			</g>
			<g>
				
					<linearGradient id="SVGID_00000086672245358759750120000010173520681465150615_" gradientUnits="userSpaceOnUse" x1="384.7108" y1="951.5488" x2="441.3297" y2="918.8599" gradientTransform="matrix(0.9015 -0.4328 0.4328 0.9015 -93.8619 312.6018)">
					<stop  offset="0.3781" style="stop-color:#C29C21"/>
					<stop  offset="0.822" style="stop-color:#FFE6B0"/>
				</linearGradient>
				<path style="fill:url(#SVGID_00000086672245358759750120000010173520681465150615_);" d="M688.27,974.87
					c2.49,25.28-2.06,43.74-2.06,43.74s-0.12-0.36-0.33-1.06c-0.25-10.21-0.86-26.69-2.21-39.81c-0.06-0.61-0.13-1.22-0.2-1.82
					c-1.75-15.65-3.36-25.89-3.28-40.63c0.44,1.44,1.03,3.47,1.7,5.97C684.03,949.17,686.98,961.74,688.27,974.87z"/>
				<path class="st3" d="M680.19,935.3c-0.08,14.74,1.53,24.98,3.28,40.63c0.07,0.6,0.13,1.21,0.2,1.82
					c1.36,13.12,1.96,29.59,2.21,39.81c-0.09-0.31-0.21-0.68-0.34-1.12c-1.72-5.79-6.23-22.55-7.75-43.31
					c-1.88-25.83,1.63-40.25,1.63-40.25S679.72,933.74,680.19,935.3z"/>
			</g>
			<g>
				
					<linearGradient id="SVGID_00000095310264620544392810000009029763912302557119_" gradientUnits="userSpaceOnUse" x1="316.0313" y1="905.4792" x2="375.848" y2="870.944" gradientTransform="matrix(0.7679 -0.6406 0.6406 0.7679 -156.5788 567.533)">
					<stop  offset="0.3781" style="stop-color:#C29C21"/>
					<stop  offset="0.822" style="stop-color:#FFE6B0"/>
				</linearGradient>
				<path style="fill:url(#SVGID_00000095310264620544392810000009029763912302557119_);" d="M682.6,1023.43
					c5.48,23.78,3.44,44.27,3.44,44.27s-0.16-0.3-0.45-0.88c-1.5-9.98-4.11-25.98-7.02-38.29c-0.14-0.58-0.27-1.14-0.41-1.71
					c-3.59-14.62-6.39-23.96-8.13-38.58c0.59,1.21,1.41,2.93,2.36,5.07C675.4,1000.09,679.75,1011.08,682.6,1023.43z"/>
				<path class="st3" d="M670.03,988.25c1.74,14.62,4.54,23.96,8.13,38.58c0.14,0.56,0.27,1.13,0.41,1.71
					c2.91,12.31,5.51,28.31,7.02,38.29c-0.13-0.26-0.28-0.57-0.46-0.94c-2.35-4.89-8.7-19.25-12.7-39.05
					c-4.98-24.63-3.42-40.62-3.42-40.62S669.39,986.94,670.03,988.25z"/>
			</g>
			<g>
				
					<linearGradient id="SVGID_00000067210630856843824220000001769218366532789671_" gradientUnits="userSpaceOnUse" x1="273.739" y1="872.5419" x2="333.2241" y2="838.1982" gradientTransform="matrix(0.6459 -0.7634 0.7634 0.6459 -172.1035 750.2915)">
					<stop  offset="0.3781" style="stop-color:#C29C21"/>
					<stop  offset="0.822" style="stop-color:#FFE6B0"/>
				</linearGradient>
				<path style="fill:url(#SVGID_00000067210630856843824220000001769218366532789671_);" d="M680.94,1065.03
					c7.39,21.87,7.19,43.04,7.19,43.04s-0.18-0.25-0.51-0.73c-2.32-9.45-6.25-24.53-10.14-35.83c-0.18-0.53-0.37-1.05-0.55-1.56
					c-4.76-13.36-8.28-21.73-11.24-35.73c0.68,1,1.62,2.44,2.73,4.25C671.92,1044.2,677.1,1053.67,680.94,1065.03z"/>
				<path class="st3" d="M665.68,1034.21c2.96,14,6.49,22.37,11.24,35.73c0.18,0.52,0.37,1.03,0.55,1.56
					c3.89,11.3,7.81,26.38,10.14,35.83c-0.15-0.21-0.32-0.48-0.53-0.78c-2.7-4.07-10.12-16.23-15.72-34.62
					c-6.97-22.89-6.84-39.39-6.84-39.39S664.95,1033.13,665.68,1034.21z"/>
			</g>
			<g>
				
					<linearGradient id="SVGID_00000059268168664244337820000014714156638518318991_" gradientUnits="userSpaceOnUse" x1="210.8214" y1="853.545" x2="270.296" y2="819.2075" gradientTransform="matrix(0.5022 -0.7649 0.8645 0.5676 -165.4884 818.0616)">
					<stop  offset="0.3781" style="stop-color:#C29C21"/>
					<stop  offset="0.822" style="stop-color:#FFE6B0"/>
				</linearGradient>
				<path style="fill:url(#SVGID_00000059268168664244337820000014714156638518318991_);" d="M681.76,1102.47
					c9.11,20.08,10.76,40.39,10.76,40.39s-0.2-0.21-0.56-0.64c-3.09-8.78-8.23-22.77-13.01-33.13c-0.23-0.48-0.45-0.96-0.67-1.43
					c-5.81-12.24-9.98-19.84-14.09-32.9c0.75,0.88,1.79,2.14,3.03,3.75C671.14,1083.58,677.03,1092.04,681.76,1102.47z"/>
				<path class="st3" d="M664.18,1074.76c4.11,13.07,8.28,20.66,14.09,32.9c0.22,0.47,0.45,0.95,0.67,1.43
					c4.78,10.36,9.92,24.35,13.01,33.13c-0.16-0.19-0.36-0.42-0.58-0.68c-2.99-3.58-11.3-14.34-18.37-31.3
					c-8.8-21.1-10.11-36.94-10.11-36.94S663.37,1073.81,664.18,1074.76z"/>
			</g>
			<g>
				
					<linearGradient id="SVGID_00000158002334832830562620000008557092455513274533_" gradientUnits="userSpaceOnUse" x1="193.8049" y1="851.8453" x2="252.3512" y2="818.0436" gradientTransform="matrix(0.4701 -0.8154 0.9355 0.5393 -205.1156 875.5897)">
					<stop  offset="0.3781" style="stop-color:#C29C21"/>
					<stop  offset="0.822" style="stop-color:#FFE6B0"/>
				</linearGradient>
				<path style="fill:url(#SVGID_00000158002334832830562620000008557092455513274533_);" d="M684.14,1137.08
					c10.09,19.83,12.48,40.69,12.48,40.69s-0.21-0.2-0.6-0.6c-3.49-8.77-9.27-22.71-14.56-32.93c-0.25-0.48-0.5-0.94-0.74-1.41
					c-6.41-12.06-10.98-19.49-15.66-32.59c0.8,0.83,1.93,2.03,3.26,3.56C672.53,1118.65,678.9,1126.78,684.14,1137.08z"/>
				<path class="st3" d="M665.05,1110.25c4.68,13.1,9.25,20.52,15.66,32.59c0.25,0.47,0.49,0.93,0.74,1.41
					c5.29,10.22,11.07,24.17,14.56,32.93c-0.17-0.18-0.38-0.39-0.62-0.65c-3.21-3.39-12.16-13.66-20.03-30.48
					c-9.8-20.92-11.69-37.19-11.69-37.19S664.18,1109.34,665.05,1110.25z"/>
			</g>
			<g>
				
					<linearGradient id="SVGID_00000038401174057353963530000001163239266830382748_" gradientUnits="userSpaceOnUse" x1="174.2973" y1="829.4294" x2="230.0714" y2="797.2282" gradientTransform="matrix(0.3769 -0.8624 0.9895 0.4324 -197.8045 997.8723)">
					<stop  offset="0.3781" style="stop-color:#C29C21"/>
					<stop  offset="0.822" style="stop-color:#FFE6B0"/>
				</linearGradient>
				<path style="fill:url(#SVGID_00000038401174057353963530000001163239266830382748_);" d="M686.04,1167.49
					c11.05,17.65,14.56,38.04,14.56,38.04s-0.22-0.15-0.63-0.47c-3.93-8.02-10.4-20.72-16.18-29.8c-0.27-0.42-0.54-0.84-0.81-1.25
					c-6.99-10.68-11.9-17.11-17.24-29.21c0.84,0.66,2.01,1.61,3.41,2.85C673.57,1151.58,680.3,1158.32,686.04,1167.49z"/>
				<path class="st3" d="M665.73,1144.81c5.34,12.1,10.26,18.53,17.24,29.21c0.27,0.41,0.54,0.83,0.81,1.25
					c5.78,9.08,12.25,21.78,16.18,29.8c-0.18-0.14-0.4-0.31-0.65-0.51c-3.35-2.69-12.73-11-21.43-26.12
					c-10.82-18.81-13.58-34.7-13.58-34.7S664.83,1144.1,665.73,1144.81z"/>
			</g>
		</g>
		<g>
			<g>
				
					<linearGradient id="SVGID_00000097464688180200398810000002698193189154612364_" gradientUnits="userSpaceOnUse" x1="148.6235" y1="1107.5159" x2="909.6826" y2="1107.5159">
					<stop  offset="0.1468" style="stop-color:#B0D235"/>
					<stop  offset="1" style="stop-color:#26562A"/>
				</linearGradient>
				<path style="fill:url(#SVGID_00000097464688180200398810000002698193189154612364_);" d="M154.12,776.52
					c0.48,10.98,1.64,21.96,3.04,32.87c1.43,10.92,3.21,21.79,5.33,32.59c4.26,21.6,9.76,42.94,16.7,63.81l2.65,7.81
					c0.91,2.59,1.89,5.16,2.83,7.74l1.42,3.87l1.51,3.83l3.05,7.65l3.25,7.57l1.63,3.78l1.74,3.73l3.48,7.46l3.7,7.35
					c9.88,19.59,21.59,38.24,34.91,55.59l2.48,3.27c0.84,1.08,1.73,2.12,2.6,3.18l5.22,6.32c0.85,1.07,1.77,2.08,2.69,3.09
					l2.75,3.04c1.85,2.02,3.63,4.08,5.53,6.06l11.56,11.75l5.78,5.87l1.44,1.47l1.5,1.41l3,2.83c8.03,7.5,15.86,15.21,24.23,22.34
					l12.37,10.89c4.18,3.57,8.46,7.01,12.69,10.52c33.94,27.93,69.79,53.52,106.91,77.06c37.15,23.5,75.68,44.79,115.19,64
					l14.82,7.2c2.46,1.22,4.96,2.36,7.46,3.49l7.49,3.41l14.99,6.82l15.14,6.47l7.56,3.26l3.78,1.63l3.82,1.53l15.27,6.15
					l30.73,12.49c40.82,17.26,80.45,37.12,119.02,58.73c19.24,10.9,38.22,22.23,56.9,34.04c9.31,5.95,18.56,11.99,27.71,18.17
					c9.18,6.14,18.23,12.47,27.11,19.04l-0.57,0.82c-18.59-11.83-37.46-23.24-56.61-34.12c-19.1-10.97-38.43-21.5-57.89-31.76
					l-14.69-7.51l-7.34-3.77l-7.4-3.65l-14.79-7.29l-14.92-7.01l-7.45-3.51c-2.49-1.16-5.01-2.26-7.51-3.39l-15.03-6.75
					c-2.49-1.15-5.03-2.2-7.56-3.26l-7.59-3.2l-7.59-3.2c-2.53-1.05-5.04-2.17-7.61-3.14l-30.68-12.13l-15.44-6.15l-3.86-1.54
					l-3.82-1.63l-7.63-3.28l-15.24-6.61l-15.06-7.01l-7.53-3.51c-2.51-1.16-5.02-2.33-7.49-3.58l-14.88-7.38l-7.42-3.72
					c-2.48-1.24-4.9-2.58-7.35-3.87l-14.66-7.8c-2.43-1.32-4.91-2.56-7.31-3.93l-7.23-4.08l-14.47-8.14l-3.61-2.04l-3.57-2.12
					l-7.13-4.24l-14.27-8.48l-14.06-8.82c-4.67-2.97-9.39-5.85-14.02-8.88c-37.11-24.12-72.9-50.29-106.75-78.8
					c-4.22-3.58-8.49-7.09-12.66-10.74l-12.34-11.11c-8.34-7.28-16.15-15.13-24.15-22.78l-2.99-2.88l-1.49-1.44l-1.44-1.5
					l-5.76-5.98l-11.51-11.97c-1.9-2.02-3.7-4.15-5.55-6.22l-2.76-3.13c-0.93-1.04-1.85-2.08-2.7-3.18l-5.24-6.49
					c-0.86-1.09-1.76-2.15-2.6-3.26l-2.48-3.35c-13.26-17.83-24.82-36.89-34.5-56.83l-3.62-7.48l-3.39-7.58l-1.69-3.79l-1.58-3.84
					l-3.17-7.68l-2.95-7.76l-1.47-3.88l-1.37-3.92c-0.91-2.61-1.85-5.21-2.73-7.84l-2.55-7.9c-6.66-21.1-11.87-42.63-15.82-64.36
					c-1.96-10.87-3.59-21.8-4.85-32.77c-1.24-10.98-2.24-21.97-2.55-33.03L154.12,776.52z"/>
			</g>
			<g>
				
					<linearGradient id="SVGID_00000092450577288270935160000002260362281132020388_" gradientUnits="userSpaceOnUse" x1="335.1958" y1="797.4011" x2="442.9256" y2="735.2032" gradientTransform="matrix(0.8065 -0.5912 0.5912 0.8065 -401.57 686.4257)">
					<stop  offset="0.3781" style="stop-color:#C29C21"/>
					<stop  offset="0.822" style="stop-color:#FFE6B0"/>
				</linearGradient>
				<path style="fill:url(#SVGID_00000092450577288270935160000002260362281132020388_);" d="M383.89,1066.32
					c15.84,46.58,3.38,85.77,3.38,85.77s-0.54-0.6-1.54-1.76c-3.57-19.43-10.05-50.62-18.52-74.74c-0.4-1.13-0.81-2.24-1.21-3.34
					c-10.6-28.66-19.31-47.04-22.76-75.45c2.01,2.41,4.78,5.83,7.96,10.09C361.3,1020.36,375.67,1042.12,383.89,1066.32z"/>
				<path class="st3" d="M343.24,996.8c3.45,28.41,12.17,46.79,22.76,75.45c0.4,1.11,0.81,2.21,1.21,3.34
					c8.47,24.12,14.95,55.3,18.52,74.74c-0.44-0.51-0.96-1.15-1.55-1.87c-7.97-9.74-29.31-38.29-40.32-76.98
					c-13.71-48.14-4.09-78.72-4.09-78.72S341.06,994.19,343.24,996.8z"/>
			</g>
			<g>
				
					<linearGradient id="SVGID_00000022533045949368451800000005284147857438982020_" gradientUnits="userSpaceOnUse" x1="358.2764" y1="862.8079" x2="466.0062" y2="800.61" gradientTransform="matrix(0.8065 -0.5912 0.5912 0.8065 -401.57 686.4257)">
					<stop  offset="0.3781" style="stop-color:#C29C21"/>
					<stop  offset="0.822" style="stop-color:#FFE6B0"/>
				</linearGradient>
				<path style="fill:url(#SVGID_00000022533045949368451800000005284147857438982020_);" d="M441.18,1105.43
					c15.84,46.58,3.38,85.77,3.38,85.77s-0.54-0.6-1.54-1.76c-3.57-19.43-10.05-50.62-18.52-74.74c-0.4-1.13-0.81-2.24-1.21-3.34
					c-10.6-28.66-19.31-47.04-22.76-75.45c2.01,2.41,4.78,5.83,7.96,10.09C418.59,1059.46,432.96,1081.23,441.18,1105.43z"/>
				<path class="st3" d="M400.53,1035.91c3.45,28.41,12.17,46.79,22.76,75.45c0.4,1.11,0.81,2.21,1.21,3.34
					c8.47,24.12,14.95,55.3,18.52,74.74c-0.44-0.51-0.96-1.15-1.55-1.87c-7.97-9.74-29.31-38.29-40.32-76.98
					c-13.71-48.14-4.09-78.72-4.09-78.72S398.35,1033.29,400.53,1035.91z"/>
			</g>
			<g>
				
					<linearGradient id="SVGID_00000176748659973683359720000000620134811551678355_" gradientUnits="userSpaceOnUse" x1="386.4858" y1="912.7678" x2="494.2156" y2="850.5699" gradientTransform="matrix(0.8065 -0.5912 0.5912 0.8065 -401.57 686.4257)">
					<stop  offset="0.3781" style="stop-color:#C29C21"/>
					<stop  offset="0.822" style="stop-color:#FFE6B0"/>
				</linearGradient>
				<path style="fill:url(#SVGID_00000176748659973683359720000000620134811551678355_);" d="M493.46,1129.04
					c15.84,46.58,3.38,85.77,3.38,85.77s-0.54-0.6-1.54-1.76c-3.57-19.43-10.05-50.62-18.52-74.74c-0.4-1.13-0.81-2.24-1.21-3.34
					c-10.6-28.66-19.31-47.04-22.76-75.45c2.01,2.41,4.78,5.83,7.96,10.09C470.88,1083.08,485.24,1104.84,493.46,1129.04z"/>
				<path class="st3" d="M452.82,1059.52c3.45,28.41,12.17,46.79,22.76,75.45c0.4,1.11,0.81,2.21,1.21,3.34
					c8.47,24.12,14.95,55.3,18.52,74.74c-0.44-0.51-0.96-1.15-1.55-1.87c-7.97-9.74-29.31-38.29-40.32-76.98
					c-13.71-48.14-4.09-78.72-4.09-78.72S450.64,1056.91,452.82,1059.52z"/>
			</g>
			<g>
				
					<linearGradient id="SVGID_00000155132948766020471550000015896436893905535363_" gradientUnits="userSpaceOnUse" x1="415.6454" y1="957.6963" x2="523.3752" y2="895.4985" gradientTransform="matrix(0.8065 -0.5912 0.5912 0.8065 -401.57 686.4257)">
					<stop  offset="0.3781" style="stop-color:#C29C21"/>
					<stop  offset="0.822" style="stop-color:#FFE6B0"/>
				</linearGradient>
				<path style="fill:url(#SVGID_00000155132948766020471550000015896436893905535363_);" d="M543.54,1148.04
					c15.84,46.58,3.38,85.77,3.38,85.77s-0.54-0.6-1.54-1.76c-3.57-19.43-10.05-50.62-18.52-74.74c-0.4-1.13-0.81-2.24-1.21-3.34
					c-10.6-28.66-19.31-47.04-22.76-75.45c2.01,2.41,4.78,5.83,7.96,10.09C520.96,1102.07,535.32,1123.84,543.54,1148.04z"/>
				<path class="st3" d="M502.9,1078.52c3.45,28.41,12.17,46.79,22.76,75.45c0.4,1.11,0.81,2.21,1.21,3.34
					c8.47,24.12,14.95,55.3,18.52,74.74c-0.44-0.51-0.96-1.15-1.55-1.87c-7.97-9.74-29.31-38.29-40.32-76.98
					c-13.71-48.14-4.09-78.72-4.09-78.72S500.72,1075.91,502.9,1078.52z"/>
			</g>
			<g>
				
					<linearGradient id="SVGID_00000086673076846129171810000002221454134533743247_" gradientUnits="userSpaceOnUse" x1="313.8368" y1="726.4873" x2="419.7968" y2="665.3112" gradientTransform="matrix(0.8065 -0.5912 0.5912 0.8065 -401.57 686.4257)">
					<stop  offset="0.3781" style="stop-color:#C29C21"/>
					<stop  offset="0.822" style="stop-color:#FFE6B0"/>
				</linearGradient>
				<path style="fill:url(#SVGID_00000086673076846129171810000002221454134533743247_);" d="M324.02,1022.82
					c15.58,45.81,3.33,84.36,3.33,84.36s-0.53-0.59-1.51-1.73c-3.51-19.11-9.89-49.79-18.22-73.51c-0.39-1.11-0.79-2.2-1.19-3.29
					c-10.42-28.19-18.99-46.27-22.39-74.21c1.98,2.37,4.7,5.73,7.83,9.92C301.81,977.61,315.94,999.02,324.02,1022.82z"/>
				<path class="st3" d="M284.04,954.45c3.4,27.94,11.97,46.02,22.39,74.21c0.4,1.09,0.8,2.18,1.19,3.29
					c8.33,23.72,14.71,54.4,18.22,73.51c-0.43-0.5-0.95-1.13-1.53-1.84c-7.84-9.58-28.83-37.66-39.66-75.72
					c-13.48-47.35-4.03-77.43-4.03-77.43S281.9,951.88,284.04,954.45z"/>
			</g>
			<g>
				
					<linearGradient id="SVGID_00000072267002933818823700000008303347934196680866_" gradientUnits="userSpaceOnUse" x1="302.4427" y1="661.8522" x2="408.4028" y2="600.6761" gradientTransform="matrix(0.8326 -0.5538 0.5538 0.8326 -396.6236 635.4915)">
					<stop  offset="0.3781" style="stop-color:#C29C21"/>
					<stop  offset="0.822" style="stop-color:#FFE6B0"/>
				</linearGradient>
				<path style="fill:url(#SVGID_00000072267002933818823700000008303347934196680866_);" d="M267.6,957.1
					c13.47,46.48-0.52,84.43-0.52,84.43s-0.51-0.61-1.43-1.8c-2.63-19.25-7.61-50.19-14.85-74.26c-0.34-1.13-0.69-2.23-1.04-3.34
					c-9.13-28.64-16.87-47.09-18.99-75.15c1.87,2.46,4.44,5.94,7.37,10.27C247.47,910.93,260.61,932.96,267.6,957.1z"/>
				<path class="st3" d="M230.78,886.97c2.12,28.06,9.86,46.52,18.99,75.15c0.35,1.11,0.7,2.21,1.04,3.34
					c7.24,24.08,12.21,55.01,14.85,74.26c-0.41-0.52-0.89-1.17-1.44-1.91c-7.4-9.92-27.08-38.94-36.17-77.45
					c-11.31-47.92-0.49-77.53-0.49-77.53S228.75,884.31,230.78,886.97z"/>
			</g>
			<g>
				
					<linearGradient id="SVGID_00000080887836597769300500000003557686104770817203_" gradientUnits="userSpaceOnUse" x1="300.1682" y1="584.6303" x2="406.1282" y2="523.4542" gradientTransform="matrix(0.8601 -0.5101 0.5101 0.8601 -391.2501 579.7361)">
					<stop  offset="0.3781" style="stop-color:#C29C21"/>
					<stop  offset="0.822" style="stop-color:#FFE6B0"/>
				</linearGradient>
				<path style="fill:url(#SVGID_00000080887836597769300500000003557686104770817203_);" d="M214.13,869.97
					c11.06,47.11-4.88,84.29-4.88,84.29s-0.47-0.64-1.34-1.87c-1.64-19.36-5.01-50.51-10.99-74.93c-0.28-1.14-0.58-2.27-0.87-3.39
					c-7.63-29.07-14.41-47.9-15.08-76.03c1.74,2.55,4.12,6.16,6.83,10.64C196.41,822.81,208.39,845.49,214.13,869.97z"/>
				<path class="st3" d="M180.98,798.03c0.67,28.14,7.44,46.97,15.08,76.03c0.29,1.12,0.58,2.24,0.87,3.39
					c5.98,24.42,9.36,55.57,10.99,74.93c-0.38-0.54-0.83-1.21-1.34-1.98c-6.87-10.29-25.03-40.28-32.12-79.21
					c-8.82-48.44,3.51-77.46,3.51-77.46S179.09,795.26,180.98,798.03z"/>
			</g>
			<g>
				
					<linearGradient id="SVGID_00000119109868659309125020000003165962298965499320_" gradientUnits="userSpaceOnUse" x1="311.0904" y1="466.8763" x2="417.0505" y2="405.7003" gradientTransform="matrix(0.8601 -0.5101 0.5101 0.8601 -391.2501 579.7361)">
					<stop  offset="0.3781" style="stop-color:#C29C21"/>
					<stop  offset="0.822" style="stop-color:#FFE6B0"/>
				</linearGradient>
				<path style="fill:url(#SVGID_00000119109868659309125020000003165962298965499320_);" d="M163.46,763.11
					c11.06,47.11-4.88,84.29-4.88,84.29s-0.47-0.64-1.34-1.87c-1.64-19.36-5.01-50.51-10.99-74.93c-0.28-1.14-0.58-2.27-0.87-3.39
					c-7.63-29.07-14.41-47.9-15.08-76.03c1.74,2.55,4.12,6.16,6.83,10.64C145.74,715.96,157.72,738.64,163.46,763.11z"/>
				<path class="st3" d="M130.31,691.17c0.67,28.14,7.44,46.97,15.08,76.03c0.29,1.12,0.58,2.24,0.87,3.39
					c5.98,24.42,9.36,55.57,10.99,74.93c-0.38-0.54-0.83-1.21-1.34-1.98c-6.87-10.29-25.03-40.28-32.12-79.21
					c-8.82-48.44,3.51-77.46,3.51-77.46S128.42,688.41,130.31,691.17z"/>
			</g>
			<g>
				
					<linearGradient id="SVGID_00000062183171711930110100000011100649009343184779_" gradientUnits="userSpaceOnUse" x1="322.6033" y1="386.4924" x2="428.5634" y2="325.3163" gradientTransform="matrix(0.6014 -0.799 0.799 0.6014 -369.802 976.5432)">
					<stop  offset="0.3781" style="stop-color:#C29C21"/>
					<stop  offset="0.822" style="stop-color:#FFE6B0"/>
				</linearGradient>
				<path style="fill:url(#SVGID_00000062183171711930110100000011100649009343184779_);" d="M155.66,877.55
					c28.15,39.36,27.55,79.81,27.55,79.81s-0.68-0.41-1.95-1.22c-8.88-17.29-23.85-44.81-38.67-65.11c-0.7-0.95-1.39-1.88-2.09-2.8
					c-18.12-23.98-31.55-38.81-42.87-64.58c2.58,1.7,6.16,4.13,10.37,7.24C121.33,840.68,141.04,857.1,155.66,877.55z"/>
				<path class="st3" d="M97.63,823.63c11.32,25.77,24.75,40.6,42.87,64.58c0.7,0.93,1.39,1.85,2.09,2.8
					c14.83,20.31,29.79,47.83,38.67,65.11c-0.56-0.36-1.23-0.81-2-1.32c-10.27-6.9-38.48-27.73-59.84-61.03
					c-26.59-41.44-26.22-72.97-26.22-72.97S94.83,821.79,97.63,823.63z"/>
			</g>
			<g>
				
					<linearGradient id="SVGID_00000043453341790145163990000000274831301071192759_" gradientUnits="userSpaceOnUse" x1="371.5597" y1="342.1328" x2="477.5197" y2="280.9567" gradientTransform="matrix(0.2796 -0.9601 0.9601 0.2796 -236.4243 1327.0559)">
					<stop  offset="0.3781" style="stop-color:#C29C21"/>
					<stop  offset="0.822" style="stop-color:#FFE6B0"/>
				</linearGradient>
				<path style="fill:url(#SVGID_00000043453341790145163990000000274831301071192759_);" d="M191.05,989.04
					c40.26,26.85,54.02,64.88,54.02,64.88s-0.78-0.14-2.25-0.45c-14.42-13.02-38.17-33.46-59.22-47.21
					c-0.99-0.64-1.97-1.26-2.95-1.88c-25.44-16.01-43.25-25.13-62.96-45.22c3.01,0.68,7.22,1.68,12.26,3.1
					C145.9,966.72,170.14,975.09,191.05,989.04z"/>
				<path class="st3" d="M117.7,959.16c19.71,20.09,37.52,29.21,62.96,45.22c0.98,0.62,1.96,1.24,2.95,1.88
					c21.05,13.74,44.8,34.18,59.22,47.21c-0.65-0.14-1.44-0.32-2.33-0.53c-12.05-2.82-45.8-12.31-77.57-35.9
					c-39.53-29.34-50.35-58.96-50.35-58.96S114.43,958.43,117.7,959.16z"/>
			</g>
			<g>
				
					<linearGradient id="SVGID_00000103977967836586835170000008149656501666848932_" gradientUnits="userSpaceOnUse" x1="412.0289" y1="340.2864" x2="517.989" y2="279.1104" gradientTransform="matrix(0.0356 -0.9994 0.9994 0.0356 -88.4757 1543.9302)">
					<stop  offset="0.3781" style="stop-color:#C29C21"/>
					<stop  offset="0.822" style="stop-color:#FFE6B0"/>
				</linearGradient>
				<path style="fill:url(#SVGID_00000103977967836586835170000008149656501666848932_);" d="M242.68,1070.92
					c45.61,16.16,68.28,49.66,68.28,49.66s-0.79,0.05-2.3,0.11c-17.18-9.09-45.21-23.08-68.99-31.25c-1.12-0.38-2.22-0.74-3.32-1.1
					c-28.58-9.29-48.09-13.76-72.12-28.4c3.09-0.08,7.42-0.14,12.64,0C193.43,1060.34,218.99,1062.51,242.68,1070.92z"/>
				<path class="st3" d="M164.23,1059.93c24.03,14.64,43.54,19.12,72.12,28.4c1.1,0.36,2.2,0.72,3.32,1.1
					c23.78,8.16,51.81,22.16,68.99,31.25c-0.66,0.02-1.47,0.04-2.39,0.06c-12.37,0.22-47.42-0.71-84-15.78
					c-45.52-18.75-63.27-44.81-63.27-44.81S160.89,1060.02,164.23,1059.93z"/>
			</g>
			<g>
				
					<linearGradient id="SVGID_00000067209290348033149250000007564323952681007756_" gradientUnits="userSpaceOnUse" x1="432.7453" y1="356.1841" x2="538.7053" y2="295.0081" gradientTransform="matrix(-0.1372 -0.9905 0.9905 -0.1372 37.238 1677.4884)">
					<stop  offset="0.3781" style="stop-color:#C29C21"/>
					<stop  offset="0.822" style="stop-color:#FFE6B0"/>
				</linearGradient>
				<path style="fill:url(#SVGID_00000067209290348033149250000007564323952681007756_);" d="M294.78,1131.76
					c47.72,8.05,75.82,37.14,75.82,37.14s-0.77,0.19-2.24,0.51c-18.49-5.99-48.51-14.94-73.34-18.88c-1.17-0.18-2.31-0.35-3.46-0.51
					c-29.76-4.22-49.74-5.26-75.94-15.54c3.03-0.61,7.28-1.42,12.45-2.18C244.45,1129.84,270,1127.57,294.78,1131.76z"/>
				<path class="st3" d="M215.62,1134.47c26.2,10.28,46.18,11.33,75.94,15.54c1.15,0.17,2.29,0.33,3.46,0.51
					c24.83,3.94,54.85,12.89,73.34,18.88c-0.65,0.14-1.44,0.3-2.35,0.47c-12.15,2.35-46.84,7.48-85.47-1.06
					c-48.07-10.62-70.05-33.23-70.05-33.23S212.34,1135.13,215.62,1134.47z"/>
			</g>
			<g>
				
					<linearGradient id="SVGID_00000103237084956282568750000014192335564406818455_" gradientUnits="userSpaceOnUse" x1="424.4394" y1="397.9784" x2="530.3995" y2="336.8023" gradientTransform="matrix(-0.2343 -0.8846 0.9997 -0.2647 92.1136 1717.8024)">
					<stop  offset="0.3781" style="stop-color:#C29C21"/>
					<stop  offset="0.822" style="stop-color:#FFE6B0"/>
				</linearGradient>
				<path style="fill:url(#SVGID_00000103237084956282568750000014192335564406818455_);" d="M347.38,1179.82
					c49.55,0.62,81.04,23.21,81.04,23.21s-0.77,0.28-2.25,0.78c-19.47-2.86-51.01-6.8-76.78-6.9c-1.21,0-2.4,0.01-3.59,0.02
					c-30.82,0.34-51.35,2.21-79.12-3.48c3.04-0.99,7.31-2.32,12.52-3.74C295.73,1185.16,321.64,1179.49,347.38,1179.82z"/>
				<path class="st3" d="M266.7,1193.44c27.76,5.69,48.29,3.83,79.12,3.48c1.19-0.01,2.38-0.02,3.59-0.02
					c25.76,0.1,57.31,4.04,76.78,6.9c-0.65,0.22-1.45,0.47-2.35,0.76c-12.2,3.86-47.18,13.42-87.48,11.07
					c-50.16-2.92-74.77-20.46-74.77-20.46S263.41,1194.51,266.7,1193.44z"/>
			</g>
			<g>
				
					<linearGradient id="SVGID_00000162316512289093388940000004845683396544064940_" gradientUnits="userSpaceOnUse" x1="402.597" y1="446.1072" x2="508.557" y2="384.9312" gradientTransform="matrix(-0.2933 -0.8943 1.0261 -0.3365 108.4946 1785.71)">
					<stop  offset="0.3781" style="stop-color:#C29C21"/>
					<stop  offset="0.822" style="stop-color:#FFE6B0"/>
				</linearGradient>
				<path style="fill:url(#SVGID_00000162316512289093388940000004845683396544064940_);" d="M400,1219.54
					c51.62-2.55,85.67,18.65,85.67,18.65s-0.79,0.34-2.29,0.94c-20.43-1.69-53.49-3.71-80.32-2.15c-1.26,0.08-2.5,0.16-3.73,0.25
					c-32.07,2.34-53.34,5.57-82.57,1.51c3.11-1.21,7.48-2.85,12.83-4.66C346.52,1228.36,373.18,1220.86,400,1219.54z"/>
				<path class="st3" d="M316.76,1238.74c29.22,4.06,50.49,0.83,82.57-1.51c1.24-0.09,2.47-0.17,3.73-0.25
					c26.83-1.56,59.89,0.46,80.32,2.15c-0.66,0.27-1.48,0.58-2.41,0.93c-12.49,4.75-48.37,16.84-90.46,17.01
					c-52.38,0.23-78.99-16.22-78.99-16.22S313.4,1240.05,316.76,1238.74z"/>
			</g>
			<g>
				
					<linearGradient id="SVGID_00000093861182190419611320000013838734784593464219_" gradientUnits="userSpaceOnUse" x1="407.7872" y1="462.7502" x2="513.7473" y2="401.5741" gradientTransform="matrix(-0.3906 -0.8563 0.9825 -0.4481 204.4234 1861.895)">
					<stop  offset="0.3781" style="stop-color:#C29C21"/>
					<stop  offset="0.822" style="stop-color:#FFE6B0"/>
				</linearGradient>
				<path style="fill:url(#SVGID_00000093861182190419611320000013838734784593464219_);" d="M445.74,1255.02
					c51.02-8.25,87.21,9.04,87.21,9.04s-0.75,0.42-2.18,1.19c-20.49,0.58-53.57,2.24-80.06,6.76c-1.24,0.22-2.46,0.44-3.68,0.66
					c-31.62,5.88-52.4,11.45-81.89,10.65c2.95-1.55,7.12-3.66,12.24-6.05C393.57,1269.7,419.24,1259.3,445.74,1255.02z"/>
				<path class="st3" d="M365.14,1283.32c29.49,0.8,50.27-4.77,81.89-10.65c1.22-0.22,2.44-0.45,3.68-0.66
					c26.49-4.52,59.57-6.18,80.06-6.76c-0.63,0.34-1.4,0.74-2.29,1.19c-11.88,6.1-46.2,22.09-88.02,26.93
					c-52.04,6.03-80.3-7.37-80.3-7.37S361.94,1285,365.14,1283.32z"/>
			</g>
		</g>
		<g>
			<g>
				
					<linearGradient id="SVGID_00000018206100413783045640000009838830263030020260_" gradientUnits="userSpaceOnUse" x1="410.0256" y1="823.6123" x2="792.3749" y2="823.6123">
					<stop  offset="0.1468" style="stop-color:#B0D235"/>
					<stop  offset="1" style="stop-color:#26562A"/>
				</linearGradient>
				<path style="fill:url(#SVGID_00000018206100413783045640000009838830263030020260_);" d="M516.78,144.59
					c-7.65,12.93-14.56,26.36-21.17,39.88c-6.57,13.55-12.72,27.3-18.49,41.21c-11.5,27.82-21.55,56.24-29.74,85.17l-3.03,10.86
					l-2.79,10.92l-1.38,5.46l-1.26,5.49l-2.51,10.98l-2.24,11.04l-1.11,5.52l-0.97,5.55l-1.95,11.09l-1.64,11.13
					c-4.35,29.69-6.24,59.7-5.63,89.61c0,7.48,0.56,14.94,0.94,22.41c0.14,3.74,0.57,7.45,0.9,11.17l1.05,11.16l2.96,22.34
					l1.48,11.17c0.26,1.86,0.48,3.72,0.76,5.58l0.93,5.56l3.71,22.23c0.63,3.7,1.21,7.41,1.88,11.11l2.2,11.05l4.4,22.1l1.11,5.52
					l1.26,5.49l2.53,10.98C462.31,725,479.23,782.79,499,839.55c2.36,7.14,5.08,14.14,7.65,21.2l7.8,21.15
					c1.26,3.54,2.72,7,4.08,10.5l4.15,10.48l8.31,20.95l8.79,20.75l4.4,10.37l2.2,5.19c0.75,1.72,1.54,3.43,2.3,5.14l9.27,20.54
					l4.63,10.27c1.55,3.42,3.22,6.78,4.83,10.17c6.49,13.54,12.76,27.19,19.63,40.53l10.06,20.14c3.39,6.69,7.01,13.27,10.45,19.94
					l5.22,9.97c1.76,3.31,3.43,6.67,5.29,9.93l10.89,19.69l21.82,39.8c0.9,1.67,1.82,3.33,2.7,5.01l2.59,5.06l5.18,10.13l5.18,10.13
					c1.7,3.39,3.5,6.73,5.11,10.16l9.9,20.47l4.94,10.24l4.71,10.34l9.39,20.69l9.02,20.84l4.5,10.42
					c1.47,3.49,2.91,6.99,4.33,10.49l8.55,21.03c5.45,14.12,11.11,28.15,16.24,42.38c2.62,7.1,5.25,14.18,7.73,21.33l3.78,10.69
					c1.26,3.56,2.53,7.12,3.72,10.71c4.83,14.33,9.6,28.67,14.06,43.12c4.5,14.43,8.77,28.93,12.64,43.55l-1.63,0.49
					c-20.45-56.76-43.29-112.56-67.57-167.63l-9.34-20.54l-4.65-10.28l-4.79-10.21l-9.59-20.41l-9.95-20.23l-4.95-10.12l-5.11-10.04
					L657.23,1214c-1.67-3.36-3.52-6.63-5.28-9.95l-5.34-9.91l-5.33-9.91l-2.67-4.96c-0.9-1.65-1.85-3.26-2.77-4.9l-22.17-39.32
					l-11.11-19.86c-1.89-3.29-3.59-6.68-5.37-10.03l-5.3-10.07l-5.28-10.08l-2.63-5.05l-1.31-2.52l-1.25-2.55l-10.03-20.42
					c-3.34-6.81-6.69-13.61-9.79-20.53l-9.47-20.67c-24.79-55.33-46.89-111.84-65.99-169.33c-19.2-57.45-35.51-115.89-48.16-175.15
					l-2.37-11.11l-1.19-5.55l-1.04-5.59l-4.1-22.35l-2.05-11.17c-0.61-3.74-1.15-7.49-1.72-11.23l-3.4-22.47l-0.85-5.62
					c-0.26-1.88-0.45-3.76-0.68-5.64l-1.32-11.29l-2.63-22.57l-0.9-11.39c-0.29-3.8-0.66-7.59-0.74-11.4
					c-0.27-7.61-0.72-15.21-0.6-22.82c-0.08-30.43,2.4-60.81,7.34-90.75l1.86-11.22l2.17-11.17l1.08-5.58l1.22-5.55l2.46-11.1
					l2.73-11.03l1.37-5.51l1.49-5.48l3.01-10.95l3.25-10.88c8.77-28.99,19.39-57.38,31.45-85.11c6.09-13.84,12.55-27.52,19.43-40.98
					c6.92-13.44,14.11-26.73,22.1-39.6L516.78,144.59z"/>
			</g>
			<g>
				
					<linearGradient id="SVGID_00000139268012012513518510000012451722491090714801_" gradientUnits="userSpaceOnUse" x1="437.6671" y1="692.8611" x2="580.9641" y2="610.1285">
					<stop  offset="0.3781" style="stop-color:#C29C21"/>
					<stop  offset="0.822" style="stop-color:#FFE6B0"/>
				</linearGradient>
				<path style="fill:url(#SVGID_00000139268012012513518510000012451722491090714801_);" d="M533.9,657.69
					c-18.3,65.16-59.48,98.83-59.48,98.83s-0.1-1.12-0.24-3.23c10.68-24.69,27.05-64.94,36.26-98.9c0.43-1.59,0.83-3.17,1.24-4.74
					c10.41-40.79,15.17-68.54,32.54-103.18c0.24,4.35,0.51,10.45,0.57,17.83C545,587.67,543.42,623.84,533.9,657.69z"/>
				<path class="st3" d="M544.21,546.47c-17.37,34.64-22.12,62.39-32.54,103.18c-0.41,1.57-0.81,3.14-1.24,4.74
					c-9.21,33.96-25.58,74.21-36.26,98.9c-0.06-0.93-0.12-2.07-0.18-3.37c-0.83-17.45-1.24-66.94,16.11-119.31
					c21.58-65.16,53.6-91.52,53.6-91.52S543.95,541.76,544.21,546.47z"/>
			</g>
			<g>
				
					<linearGradient id="SVGID_00000062187800437766222030000007936058924882482089_" gradientUnits="userSpaceOnUse" x1="466.2791" y1="783.6775" x2="609.576" y2="700.9449">
					<stop  offset="0.3781" style="stop-color:#C29C21"/>
					<stop  offset="0.822" style="stop-color:#FFE6B0"/>
				</linearGradient>
				<path style="fill:url(#SVGID_00000062187800437766222030000007936058924882482089_);" d="M562.51,748.51
					c-18.3,65.16-59.48,98.83-59.48,98.83s-0.1-1.12-0.24-3.23c10.68-24.69,27.05-64.94,36.26-98.9c0.43-1.59,0.83-3.17,1.24-4.74
					c10.41-40.79,15.17-68.54,32.54-103.18c0.24,4.35,0.51,10.45,0.57,17.83C573.62,678.49,572.03,714.66,562.51,748.51z"/>
				<path class="st3" d="M572.82,637.29c-17.37,34.64-22.12,62.39-32.54,103.18c-0.41,1.57-0.81,3.14-1.24,4.74
					c-9.21,33.96-25.58,74.21-36.26,98.9c-0.06-0.93-0.12-2.07-0.18-3.37c-0.83-17.45-1.24-66.94,16.11-119.31
					c21.58-65.16,53.6-91.52,53.6-91.52S572.56,632.57,572.82,637.29z"/>
			</g>
			<g>
				
					<linearGradient id="SVGID_00000020357728031660519210000015114541730106464391_" gradientUnits="userSpaceOnUse" x1="501.2489" y1="853.0461" x2="644.5459" y2="770.3136">
					<stop  offset="0.3781" style="stop-color:#C29C21"/>
					<stop  offset="0.822" style="stop-color:#FFE6B0"/>
				</linearGradient>
				<path style="fill:url(#SVGID_00000020357728031660519210000015114541730106464391_);" d="M597.48,817.88
					C579.18,883.04,538,916.7,538,916.7s-0.1-1.12-0.24-3.23c10.68-24.69,27.05-64.94,36.26-98.9c0.43-1.59,0.83-3.17,1.24-4.74
					c10.41-40.79,15.17-68.54,32.54-103.18c0.24,4.35,0.51,10.45,0.57,17.83C608.59,747.86,607,784.03,597.48,817.88z"/>
				<path class="st3" d="M607.79,706.66c-17.37,34.64-22.12,62.39-32.54,103.18c-0.41,1.57-0.81,3.14-1.24,4.74
					c-9.21,33.96-25.58,74.21-36.26,98.9c-0.06-0.93-0.12-2.07-0.18-3.37c-0.83-17.45-1.24-66.94,16.11-119.31
					c21.58-65.16,53.6-91.52,53.6-91.52S607.53,701.94,607.79,706.66z"/>
			</g>
			<g>
				
					<linearGradient id="SVGID_00000075140746357905563980000016687346377069369020_" gradientUnits="userSpaceOnUse" x1="537.3966" y1="915.4288" x2="680.6936" y2="832.6963">
					<stop  offset="0.3781" style="stop-color:#C29C21"/>
					<stop  offset="0.822" style="stop-color:#FFE6B0"/>
				</linearGradient>
				<path style="fill:url(#SVGID_00000075140746357905563980000016687346377069369020_);" d="M633.63,880.26
					c-18.3,65.16-59.48,98.83-59.48,98.83s-0.1-1.12-0.24-3.23c10.68-24.69,27.05-64.94,36.26-98.9c0.43-1.59,0.83-3.17,1.24-4.74
					c10.41-40.79,15.17-68.54,32.54-103.18c0.24,4.35,0.51,10.45,0.57,17.83C644.73,810.24,643.15,846.41,633.63,880.26z"/>
				<path class="st3" d="M643.94,769.04c-17.37,34.64-22.12,62.39-32.54,103.18c-0.41,1.57-0.81,3.14-1.24,4.74
					c-9.21,33.96-25.58,74.21-36.26,98.9c-0.06-0.93-0.12-2.07-0.18-3.37c-0.83-17.45-1.24-66.94,16.11-119.31
					c21.58-65.16,53.6-91.52,53.6-91.52S643.68,764.32,643.94,769.04z"/>
			</g>
			<g>
				
					<linearGradient id="SVGID_00000026154541203239924470000001823309360668684959_" gradientUnits="userSpaceOnUse" x1="411.2694" y1="594.428" x2="552.2123" y2="513.0545">
					<stop  offset="0.3781" style="stop-color:#C29C21"/>
					<stop  offset="0.822" style="stop-color:#FFE6B0"/>
				</linearGradient>
				<path style="fill:url(#SVGID_00000026154541203239924470000001823309360668684959_);" d="M505.92,559.83
					c-18,64.09-58.5,97.21-58.5,97.21s-0.1-1.1-0.24-3.18c10.5-24.28,26.6-63.87,35.66-97.27c0.42-1.57,0.82-3.11,1.22-4.66
					c10.24-40.12,14.92-67.41,32-101.48c0.24,4.28,0.5,10.28,0.56,17.54C516.84,490.97,515.28,526.54,505.92,559.83z"/>
				<path class="st3" d="M516.06,450.44c-17.08,34.07-21.76,61.36-32,101.48c-0.4,1.55-0.8,3.09-1.22,4.66
					c-9.06,33.4-25.16,72.99-35.66,97.27c-0.06-0.92-0.12-2.04-0.18-3.32c-0.82-17.16-1.22-65.84,15.84-117.35
					c21.22-64.09,52.72-90.01,52.72-90.01S515.8,445.8,516.06,450.44z"/>
			</g>
			<g>
				
					<linearGradient id="SVGID_00000028302741143628795160000016878275359919166868_" gradientUnits="userSpaceOnUse" x1="390.6546" y1="490.6466" x2="530.6718" y2="409.8077" gradientTransform="matrix(0.999 0.0456 -0.0456 0.999 34.1021 -38.155)">
					<stop  offset="0.3781" style="stop-color:#C29C21"/>
					<stop  offset="0.822" style="stop-color:#FFE6B0"/>
				</linearGradient>
				<path style="fill:url(#SVGID_00000028302741143628795160000016878275359919166868_);" d="M497.67,439.92
					c-20.59,63.11-62.4,94.12-62.4,94.12s-0.06-1.1-0.11-3.19c11.48-23.72,29.17-62.45,39.58-95.35c0.48-1.55,0.95-3.07,1.41-4.59
					c11.86-39.56,17.65-66.58,36.1-99.75c0.07,4.29,0.08,10.3-0.15,17.55C511.39,371.69,508.38,407.14,497.67,439.92z"/>
				<path class="st3" d="M512.26,331.16c-18.45,33.17-24.24,60.19-36.1,99.75c-0.46,1.52-0.92,3.05-1.41,4.59
					c-10.41,32.91-28.11,71.63-39.58,95.35c-0.02-0.92-0.04-2.04-0.04-3.32c-0.12-17.18,1.46-65.84,20.6-116.41
					c23.81-62.94,56.33-87.23,56.33-87.23S512.19,326.52,512.26,331.16z"/>
			</g>
			<g>
				
					<linearGradient id="SVGID_00000026144985845871881200000018236155483001935246_" gradientUnits="userSpaceOnUse" x1="377.6089" y1="367.945" x2="516.5695" y2="287.7161" gradientTransform="matrix(0.9953 0.0971 -0.0971 0.9953 71.399 -79.946)">
					<stop  offset="0.3781" style="stop-color:#C29C21"/>
					<stop  offset="0.822" style="stop-color:#FFE6B0"/>
				</linearGradient>
				<path style="fill:url(#SVGID_00000026144985845871881200000018236155483001935246_);" d="M508.08,298.45
					c-23.47,61.83-66.66,90.38-66.66,90.38s0-1.1,0.04-3.19c12.56-23.03,32.01-60.67,43.93-92.93c0.55-1.52,1.09-3.01,1.62-4.51
					c13.67-38.82,20.7-65.47,40.65-97.52c-0.13,4.28-0.39,10.29-0.96,17.52C524.92,231.1,520.28,266.33,508.08,298.45z"/>
				<path class="st3" d="M527.65,190.68c-19.95,32.06-26.98,58.7-40.65,97.52c-0.53,1.49-1.06,2.99-1.62,4.51
					c-11.91,32.26-31.37,69.91-43.93,92.93c0.02-0.92,0.06-2.04,0.11-3.32c0.67-17.17,4.49-65.66,25.94-115.07
					c26.68-61.48,60.28-83.85,60.28-83.85S527.8,186.03,527.65,190.68z"/>
			</g>
			<g>
				
					<linearGradient id="SVGID_00000007422749894994826970000016525467806391472786_" gradientUnits="userSpaceOnUse" x1="389.4701" y1="204.7676" x2="528.4306" y2="124.5387" gradientTransform="matrix(0.9953 0.0971 -0.0971 0.9953 71.399 -79.946)">
					<stop  offset="0.3781" style="stop-color:#C29C21"/>
					<stop  offset="0.822" style="stop-color:#FFE6B0"/>
				</linearGradient>
				<path style="fill:url(#SVGID_00000007422749894994826970000016525467806391472786_);" d="M535.73,137.19
					c-23.47,61.83-66.66,90.38-66.66,90.38s0-1.1,0.04-3.19c12.56-23.03,32.01-60.67,43.93-92.93c0.55-1.52,1.09-3.01,1.62-4.51
					c13.67-38.82,20.7-65.47,40.65-97.52c-0.13,4.28-0.39,10.29-0.96,17.52C552.57,69.84,547.93,105.08,535.73,137.19z"/>
				<path class="st3" d="M555.31,29.42c-19.95,32.06-26.98,58.7-40.65,97.52c-0.53,1.49-1.06,2.99-1.62,4.51
					c-11.91,32.26-31.37,69.91-43.93,92.93c0.02-0.92,0.06-2.04,0.11-3.32c0.67-17.17,4.49-65.66,25.94-115.07
					c26.68-61.48,60.28-83.85,60.28-83.85S555.45,24.78,555.31,29.42z"/>
			</g>
			<g>
				
					<linearGradient id="SVGID_00000035490061796167693230000008524586039616994464_" gradientUnits="userSpaceOnUse" x1="465.6658" y1="213.2983" x2="611.9043" y2="128.8674" gradientTransform="matrix(0.9574 -0.2888 0.2888 0.9574 -145.8983 252.7668)">
					<stop  offset="0.3781" style="stop-color:#C29C21"/>
					<stop  offset="0.822" style="stop-color:#FFE6B0"/>
				</linearGradient>
				<path style="fill:url(#SVGID_00000035490061796167693230000008524586039616994464_);" d="M444.06,258.94
					c-0.71,67.19-30.94,111.99-30.94,111.99s-0.38-1.02-1.05-2.97c3.79-26.65,9-69.75,9.06-104.66c0-1.64-0.02-3.25-0.03-4.86
					c-0.54-41.73-3.1-69.36,4.47-107.51c1.33,4.02,3.13,9.68,5.06,16.61C436.76,189.48,444.44,224.04,444.06,258.94z"/>
				<path class="st3" d="M425.56,150.93c-7.57,38.15-5.01,65.79-4.47,107.51c0.02,1.61,0.03,3.22,0.03,4.86
					c-0.06,34.91-5.27,78.02-9.06,104.66c-0.29-0.86-0.64-1.91-1.03-3.12c-5.21-16.16-18.15-62.64-15.1-117.47
					c3.79-68.23,27.26-103.23,27.26-103.23S424.11,146.58,425.56,150.93z"/>
			</g>
			<g>
				
					<linearGradient id="SVGID_00000168821586586835387780000012268565683645616554_" gradientUnits="userSpaceOnUse" x1="533.2532" y1="270.7147" x2="682.6791" y2="184.4437" gradientTransform="matrix(0.7931 -0.6091 0.6091 0.7931 -245.5527 614.3159)">
					<stop  offset="0.3781" style="stop-color:#C29C21"/>
					<stop  offset="0.822" style="stop-color:#FFE6B0"/>
				</linearGradient>
				<path style="fill:url(#SVGID_00000168821586586835387780000012268565683645616554_);" d="M397.74,412.85
					c20.58,63.11,6.46,117.01,6.46,117.01s-0.68-0.8-1.92-2.36c-4.88-26.42-13.63-68.8-24.61-101.48c-0.52-1.53-1.04-3.03-1.57-4.53
					c-13.7-38.81-24.82-63.64-29.8-102.32c2.52,3.23,5.99,7.81,9.98,13.53C368.95,350.78,387.06,380.06,397.74,412.85z"/>
				<path class="st3" d="M346.29,319.17c4.98,38.68,16.11,63.51,29.8,102.32c0.52,1.5,1.05,3,1.57,4.53
					c10.98,32.67,19.73,75.05,24.61,101.48c-0.55-0.69-1.2-1.53-1.95-2.51c-9.98-13.05-36.77-51.39-51.25-103.87
					c-18.02-65.31-7.13-107.36-7.13-107.36S343.57,315.67,346.29,319.17z"/>
			</g>
			<g>
				
					<linearGradient id="SVGID_00000031909732238305499280000011118824936276065452_" gradientUnits="userSpaceOnUse" x1="557.7565" y1="339.6485" x2="706.4127" y2="253.8218" gradientTransform="matrix(0.6196 -0.7849 0.7849 0.6196 -254.4472 876.6976)">
					<stop  offset="0.3781" style="stop-color:#C29C21"/>
					<stop  offset="0.822" style="stop-color:#FFE6B0"/>
				</linearGradient>
				<path style="fill:url(#SVGID_00000031909732238305499280000011118824936276065452_);" d="M389.35,546.92
					c33.76,55.54,31.87,111.66,31.87,111.66s-0.83-0.59-2.38-1.76c-10.51-24.28-28.28-62.96-46.07-91.62
					c-0.84-1.34-1.67-2.65-2.51-3.96c-21.77-33.86-38-54.88-51.29-91.01c3.15,2.44,7.52,5.93,12.64,10.38
					C347.85,494.65,371.82,518.06,389.35,546.92z"/>
				<path class="st3" d="M318.97,470.22c13.3,36.13,29.52,57.15,51.29,91.01c0.84,1.31,1.67,2.62,2.51,3.96
					c17.79,28.66,35.56,67.34,46.07,91.62c-0.68-0.52-1.5-1.16-2.44-1.9c-12.53-9.91-46.9-39.72-72.42-86.63
					c-31.77-58.37-30.42-102.12-30.42-102.12S315.56,467.58,318.97,470.22z"/>
			</g>
			<g>
				
					<linearGradient id="SVGID_00000043456769801894173230000001556872192093094577_" gradientUnits="userSpaceOnUse" x1="551.9691" y1="400.9738" x2="698.7064" y2="316.2549" gradientTransform="matrix(0.475 -0.88 0.88 0.475 -232.0175 1058.7377)">
					<stop  offset="0.3781" style="stop-color:#C29C21"/>
					<stop  offset="0.822" style="stop-color:#FFE6B0"/>
				</linearGradient>
				<path style="fill:url(#SVGID_00000043456769801894173230000001556872192093094577_);" d="M396.85,657.82
					c41.81,48.19,48.58,103.83,48.58,103.83s-0.91-0.42-2.61-1.27c-14.09-21.88-37.55-56.56-59.49-81.35
					c-1.03-1.16-2.06-2.29-3.08-3.42c-26.66-29.15-45.88-46.72-64.53-79.74c3.48,1.8,8.32,4.39,14.05,7.78
					C347.93,614.35,375.14,632.79,396.85,657.82z"/>
				<path class="st3" d="M315.72,595.87c18.66,33.02,37.87,50.59,64.53,79.74c1.02,1.13,2.05,2.26,3.08,3.42
					c21.94,24.8,45.39,59.47,59.49,81.35c-0.75-0.38-1.66-0.85-2.69-1.4c-13.87-7.34-52.31-30.07-84.67-71.35
					c-40.28-51.36-45.68-94.72-45.68-94.72S311.95,593.93,315.72,595.87z"/>
			</g>
			<g>
				
					<linearGradient id="SVGID_00000181088314331834644100000006034983083311083181_" gradientUnits="userSpaceOnUse" x1="525.7933" y1="470.4957" x2="671.2349" y2="386.525" gradientTransform="matrix(0.334 -0.8519 0.9628 0.3775 -211.5932 1123.6947)">
					<stop  offset="0.3781" style="stop-color:#C29C21"/>
					<stop  offset="0.822" style="stop-color:#FFE6B0"/>
				</linearGradient>
				<path style="fill:url(#SVGID_00000181088314331834644100000006034983083311083181_);" d="M414.21,754.82
					c49.08,41.37,64.02,92.52,64.02,92.52s-0.98-0.32-2.81-0.97c-17.37-19.19-46.02-49.49-71.7-70.75c-1.21-0.99-2.4-1.96-3.6-2.92
					c-31.07-24.92-52.96-39.69-76.55-68.85c3.76,1.39,9.01,3.4,15.27,6.09C358.66,718.4,388.72,733.32,414.21,754.82z"/>
				<path class="st3" d="M323.57,703.84c23.58,29.16,45.48,43.93,76.55,68.85c1.2,0.97,2.39,1.93,3.6,2.92
					c25.69,21.26,54.34,51.56,71.7,70.75c-0.81-0.29-1.79-0.66-2.91-1.08c-15.03-5.7-57.01-23.69-95.58-59.41
					c-48.01-44.45-59.77-84.29-59.77-84.29S319.49,702.34,323.57,703.84z"/>
			</g>
			<g>
				
					<linearGradient id="SVGID_00000104705592586548981350000008519467413872092829_" gradientUnits="userSpaceOnUse" x1="473.378" y1="532.8727" x2="617.7823" y2="449.5009" gradientTransform="matrix(0.2922 -0.8947 1.0265 0.3352 -238.5292 1188.1481)">
					<stop  offset="0.3781" style="stop-color:#C29C21"/>
					<stop  offset="0.822" style="stop-color:#FFE6B0"/>
				</linearGradient>
				<path style="fill:url(#SVGID_00000104705592586548981350000008519467413872092829_);" d="M437.71,842.5
					c53.48,39.52,71.99,91.21,71.99,91.21s-1.04-0.27-2.99-0.83c-19.19-18.66-50.76-48.07-78.73-68.34
					c-1.31-0.95-2.61-1.87-3.91-2.78c-33.78-23.71-57.42-37.55-83.66-66.09c3.99,1.19,9.57,2.95,16.24,5.32
					C377.79,808.47,409.93,821.96,437.71,842.5z"/>
				<path class="st3" d="M340.42,795.67c26.24,28.54,49.88,42.37,83.66,66.09c1.3,0.92,2.6,1.84,3.91,2.78
					c27.96,20.28,59.54,49.68,78.73,68.34c-0.86-0.25-1.9-0.56-3.09-0.93c-15.97-4.93-60.7-20.85-102.91-55.21
					c-52.54-42.75-67.09-83.01-67.09-83.01S336.09,794.37,340.42,795.67z"/>
			</g>
			<g>
				
					<linearGradient id="SVGID_00000066475275516040586760000002555535312846343867_" gradientUnits="userSpaceOnUse" x1="447.5638" y1="565.0719" x2="589.6498" y2="483.0385" gradientTransform="matrix(0.1912 -0.9215 1.0573 0.2194 -206.202 1306.3065)">
					<stop  offset="0.3781" style="stop-color:#C29C21"/>
					<stop  offset="0.822" style="stop-color:#FFE6B0"/>
				</linearGradient>
				<path style="fill:url(#SVGID_00000066475275516040586760000002555535312846343867_);" d="M457.44,919.77
					c57.06,32.64,80.57,81.71,80.57,81.71s-1.06-0.14-3.05-0.45c-20.92-16.17-55.2-41.47-85-58.15c-1.4-0.78-2.78-1.53-4.17-2.28
					c-35.92-19.37-60.78-30.19-89.68-55.3c4.08,0.69,9.8,1.74,16.67,3.27C394.52,893.39,427.81,902.81,457.44,919.77z"/>
				<path class="st3" d="M356.12,885.3c28.9,25.11,53.76,35.93,89.68,55.3c1.38,0.75,2.77,1.5,4.17,2.28
					c29.8,16.68,64.09,41.99,85,58.15c-0.88-0.14-1.95-0.32-3.16-0.54c-16.36-2.92-62.39-13.19-107.74-42.1
					c-56.44-35.97-74.89-74.17-74.89-74.17S351.69,884.55,356.12,885.3z"/>
			</g>
		</g>
		<g>
			
				<linearGradient id="SVGID_00000078013675454667245530000003927023115608696736_" gradientUnits="userSpaceOnUse" x1="630.2691" y1="1368.5565" x2="995.2762" y2="853.4503">
				<stop  offset="0" style="stop-color:#26562A"/>
				<stop  offset="1" style="stop-color:#B0D235"/>
			</linearGradient>
			<path style="fill:url(#SVGID_00000078013675454667245530000003927023115608696736_);" d="M728.54,1438.19
				c-0.68-14.71-1.13-29.19-1.5-43.77c-0.36-14.56-0.62-29.11-0.76-43.67c-0.26-29.11-0.15-58.22,0.55-87.33
				c1.42-58.2,4.59-116.47,12.64-174.35c2.16-14.45,4.42-28.89,7.5-43.22l1.1-5.38c0.37-1.79,0.83-3.57,1.24-5.36l2.56-10.7
				l2.93-10.63l0.73-2.65c0.25-0.88,0.56-1.76,0.83-2.63l1.7-5.26l1.7-5.26l1.89-5.14l3.8-10.26c1.28-3.41,2.5-6.85,3.83-10.24
				l4.14-10.12l4.14-10.11c0.67-1.69,1.41-3.36,2.16-5.02l2.23-4.99l4.45-9.97c0.75-1.66,1.46-3.33,2.24-4.98l2.37-4.92
				c12.44-26.32,26.26-51.95,41.3-76.8c15.08-24.82,31.14-49.08,49.11-71.86c-17.13,23.4-32.27,48.17-46.4,73.43
				c-14.09,25.29-26.91,51.26-38.31,77.81l-2.17,4.96c-0.71,1.66-1.36,3.34-2.05,5.01l-4.06,10.04l-2.03,5.02
				c-0.68,1.67-1.36,3.34-1.96,5.04l-3.74,10.16l-3.74,10.15c-1.2,3.4-2.28,6.84-3.43,10.26l-3.39,10.27l-1.68,5.13l-1.46,5.15
				l-1.46,5.14c-0.24,0.86-0.5,1.71-0.72,2.58l-0.62,2.61l-2.48,10.43l-2.12,10.54c-0.34,1.76-0.73,3.5-1.03,5.28l-0.89,5.31
				c-2.51,14.13-4.22,28.43-5.84,42.72c-5.88,57.31-6.95,115.16-6.29,172.91c0.34,28.88,1.28,57.77,2.57,86.63
				c0.65,14.43,1.43,28.85,2.31,43.27c0.88,14.39,1.86,28.86,3.03,43.1L728.54,1438.19z"/>
		</g>
	</g>
</g>
<g id="Layer_7">
</g>
<g id="Layer_2">
</g>
<g id="Layer_5">
	<circle class="st51" cx="1309.81" cy="314.61" r="73.97"/>
</g>
<g id="Layer_8">
</g>
</svg>
